<svg xmlns="http://www.w3.org/2000/svg" xmlns:xlink="http://www.w3.org/1999/xlink" viewBox="0 0 262.5 74.999997" preserveAspectRatio="xMidYMid meet"><defs><clipPath id="f5208f0700"><path d="M 54 0.0703125 L 102.929688 0.0703125 L 102.929688 17 L 54 17 Z M 54 0.0703125 " clip-rule="nonzero"></path></clipPath><clipPath id="86d78a748b"><path d="M 45.929688 8 L 59 8 L 59 67 L 45.929688 67 Z M 45.929688 8 " clip-rule="nonzero"></path></clipPath><clipPath id="ab0c5d4e0e"><path d="M 54 6 L 102.929688 6 L 102.929688 73 L 54 73 Z M 54 6 " clip-rule="nonzero"></path></clipPath><clipPath id="5313ee1ef8"><path d="M 96 66 L 102.929688 66 L 102.929688 73 L 96 73 Z M 96 66 " clip-rule="nonzero"></path></clipPath><clipPath id="58c572a903"><path d="M 94 64 L 102.929688 64 L 102.929688 73 L 94 73 Z M 94 64 " clip-rule="nonzero"></path></clipPath><clipPath id="8710191da7"><path d="M 93 63 L 102.929688 63 L 102.929688 73 L 93 73 Z M 93 63 " clip-rule="nonzero"></path></clipPath><clipPath id="4433a62928"><path d="M 91 61 L 102.929688 61 L 102.929688 73 L 91 73 Z M 91 61 " clip-rule="nonzero"></path></clipPath><clipPath id="a91165cc0c"><path d="M 98.484375 0.0703125 L 156 0.0703125 L 156 74.925781 L 98.484375 74.925781 Z M 98.484375 0.0703125 " clip-rule="nonzero"></path></clipPath><clipPath id="7fef2b248a"><path d="M 134 0.0703125 L 139 0.0703125 L 139 2 L 134 2 Z M 134 0.0703125 " clip-rule="nonzero"></path></clipPath><clipPath id="b9f3467e59"><path d="M 151.882812 0.0703125 L 216 0.0703125 L 216 74.925781 L 151.882812 74.925781 Z M 151.882812 0.0703125 " clip-rule="nonzero"></path></clipPath><clipPath id="86136f2247"><path d="M 161 73 L 165 73 L 165 74.925781 L 161 74.925781 Z M 161 73 " clip-rule="nonzero"></path></clipPath><clipPath id="b97d2a033b"><path d="M 166 72 L 168 72 L 168 74.925781 L 166 74.925781 Z M 166 72 " clip-rule="nonzero"></path></clipPath><clipPath id="75f44ca25d"><path d="M 165 0.0703125 L 170 0.0703125 L 170 2 L 165 2 Z M 165 0.0703125 " clip-rule="nonzero"></path></clipPath><clipPath id="f9147ab2e1"><path d="M 156 0.0703125 L 162 0.0703125 L 162 6 L 156 6 Z M 156 0.0703125 " clip-rule="nonzero"></path></clipPath><clipPath id="7da118d9f0"><path d="M 151.882812 8 L 155 8 L 155 13 L 151.882812 13 Z M 151.882812 8 " clip-rule="nonzero"></path></clipPath></defs><g clip-path="url(#f5208f0700)"><path fill="#188693" d="M 72.597656 3.417969 C 72.945312 4.035156 73.050781 5.773438 73.105469 6.480469 C 74.238281 5.347656 77.003906 1.785156 76.882812 0.144531 C 78.261719 1.039062 77.40625 5.058594 78.507812 5.308594 C 79.605469 5.5625 82.617188 2.792969 81.570312 1.488281 C 82.949219 2.785156 82.492188 5.414062 83.8125 5.574219 C 85.128906 5.734375 87.113281 3.125 87.550781 1.867188 C 87.894531 2.816406 87.941406 5.472656 88.902344 5.785156 C 89.859375 6.097656 91.3125 3.882812 91.507812 2.886719 C 92.015625 3.804688 92.304688 6.421875 92.8125 7.339844 C 93.953125 7.066406 95.09375 6.792969 96.234375 6.519531 L 95.632812 8.925781 C 96.933594 8.925781 98.238281 8.925781 99.542969 8.925781 C 98.914062 9.714844 98.285156 10.503906 97.65625 11.289062 C 98.746094 12.136719 100.597656 11.617188 102.003906 16.875 C 100.804688 14.3125 95.089844 14.023438 94.535156 15.132812 L 91.203125 12.5625 L 88.007812 11.523438 L 64.867188 11.617188 L 66.660156 11.007812 C 66.660156 11.007812 56.613281 15.117188 56.910156 15.023438 C 55.625 14.15625 54.898438 12.125 54.898438 12.125 C 54.898438 12.125 55.386719 3.742188 56.878906 4.863281 C 57.125 5.046875 57.269531 5.535156 57.496094 5.742188 C 58.042969 6.238281 58.671875 5.832031 58.898438 5.128906 C 59.128906 4.425781 60.457031 5.523438 60.105469 2.207031 C 60.03125 1.519531 61.269531 3.972656 61.574219 4.59375 C 61.875 5.214844 62 6.753906 63.015625 6.777344 C 63.710938 6.796875 64.148438 5.328125 64.433594 4.6875 C 64.71875 4.046875 67.203125 5.277344 65.949219 1.8125 C 65.738281 1.234375 67.480469 3.1875 67.519531 3.800781 C 67.617188 5.398438 68.535156 4.792969 66.632812 7.226562 C 68.269531 8.15625 69.09375 4.859375 69.421875 4.179688 C 69.75 3.5 70.492188 2.664062 71.03125 0.84375 C 71.214844 0.230469 72.25 2.800781 72.597656 3.417969 " fill-opacity="1" fill-rule="nonzero"></path></g><g clip-path="url(#86d78a748b)"><path fill="#188693" d="M 57.167969 13.152344 L 52.121094 8.097656 L 52.304688 15.265625 L 45.9375 16.8125 L 53.980469 19.636719 L 47.398438 21.851562 L 54.261719 23.59375 L 48.636719 28.824219 L 55.0625 29.484375 L 50.609375 31.960938 L 55.644531 35.507812 L 51.460938 37.914062 L 55.746094 41.089844 L 50.714844 45.246094 L 55.246094 47.820312 L 50.207031 50.257812 L 54.65625 53.644531 L 50.726562 56.175781 L 53.941406 60.664062 L 49.054688 61.628906 L 51.859375 66.5625 C 51.859375 66.5625 59.78125 67.617188 58.902344 49.925781 C 58.023438 32.230469 57.167969 13.152344 57.167969 13.152344 " fill-opacity="1" fill-rule="nonzero"></path></g><g clip-path="url(#ab0c5d4e0e)"><path fill="#b7ca3b" d="M 71.8125 35.046875 C 72.148438 27.367188 70.699219 24.34375 73.144531 24.476562 C 76.96875 24.535156 80.550781 23.511719 82.878906 24.949219 C 84.359375 27.347656 84.683594 31.195312 82.582031 33.746094 C 80.8125 36.035156 73.953125 34.253906 71.8125 35.046875 Z M 102.898438 63.597656 C 102.882812 63.457031 102.863281 63.316406 102.835938 63.175781 C 102.785156 62.894531 102.71875 62.617188 102.636719 62.34375 C 102.601562 62.214844 102.558594 62.089844 102.515625 61.964844 C 102.183594 61.003906 101.675781 60.078125 101.042969 59.179688 C 100.972656 59.078125 100.894531 58.96875 100.816406 58.863281 C 100.660156 58.652344 100.496094 58.445312 100.328125 58.242188 C 100.246094 58.140625 100.160156 58.039062 100.078125 57.9375 C 99.910156 57.738281 99.730469 57.542969 99.550781 57.34375 C 99.464844 57.246094 99.375 57.148438 99.28125 57.054688 C 99.101562 56.859375 98.914062 56.667969 98.722656 56.476562 C 98.628906 56.382812 98.535156 56.289062 98.4375 56.199219 C 97.40625 55.191406 96.273438 54.226562 95.128906 53.292969 C 95.050781 53.230469 94.972656 53.164062 94.890625 53.101562 C 94.617188 52.878906 94.339844 52.65625 94.066406 52.4375 C 93.988281 52.375 93.910156 52.3125 93.832031 52.25 C 93.570312 52.042969 93.308594 51.835938 93.050781 51.632812 C 92.96875 51.566406 92.882812 51.5 92.800781 51.4375 C 92.53125 51.21875 92.261719 51.003906 91.992188 50.792969 C 91.910156 50.726562 91.828125 50.660156 91.742188 50.589844 C 90.523438 49.609375 89.398438 48.667969 88.496094 47.753906 C 88.597656 47.6875 88.695312 47.625 88.792969 47.558594 C 90.144531 46.660156 91.382812 45.621094 92.507812 44.472656 C 93.1875 43.78125 93.824219 43.050781 94.414062 42.285156 C 94.707031 41.90625 94.984375 41.523438 95.257812 41.132812 C 95.730469 40.441406 96.171875 39.730469 96.574219 39 C 96.90625 38.402344 97.214844 37.792969 97.5 37.171875 C 98.09375 35.878906 98.585938 34.542969 98.964844 33.183594 C 99.355469 31.785156 99.628906 30.359375 99.777344 28.933594 C 99.960938 27.167969 99.960938 25.402344 99.753906 23.675781 C 99.679688 23.015625 99.570312 22.367188 99.433594 21.726562 C 99.261719 20.917969 99.042969 20.121094 98.777344 19.34375 C 98.421875 18.320312 97.988281 17.324219 97.464844 16.375 C 97.121094 15.75 96.738281 15.140625 96.320312 14.554688 C 95.78125 13.804688 95.183594 13.09375 94.519531 12.421875 C 93.847656 11.734375 93.105469 11.09375 92.292969 10.503906 C 90.5 9.1875 88.183594 8.273438 85.585938 7.703125 C 84.175781 7.394531 82.683594 7.191406 81.148438 7.078125 C 71.207031 6.34375 59.398438 9.527344 56.148438 14.359375 C 53.128906 19.867188 55.320312 26.550781 54.722656 32.636719 C 54.902344 43.835938 54.492188 54.808594 54.992188 65.902344 C 56.679688 74.0625 67.011719 74.996094 70.65625 68.628906 C 73.136719 63.886719 71.40625 58.28125 71.863281 53.066406 C 74.53125 56.546875 77.800781 59.660156 81.101562 62.738281 C 81.207031 62.835938 81.3125 62.933594 81.417969 63.03125 C 81.636719 63.238281 81.855469 63.441406 82.078125 63.644531 C 82.179688 63.746094 82.285156 63.84375 82.390625 63.9375 C 82.613281 64.144531 82.832031 64.351562 83.054688 64.558594 C 83.160156 64.660156 83.269531 64.761719 83.375 64.863281 C 83.628906 65.097656 83.882812 65.335938 84.132812 65.574219 C 84.257812 65.691406 84.382812 65.808594 84.507812 65.933594 C 85.027344 66.421875 85.539062 66.917969 86.046875 67.417969 C 86.105469 67.472656 86.164062 67.53125 86.222656 67.589844 C 86.464844 67.828125 86.707031 68.066406 86.945312 68.3125 C 87.003906 68.367188 87.058594 68.425781 87.117188 68.484375 C 87.363281 68.738281 87.609375 68.988281 87.851562 69.242188 C 87.910156 69.300781 87.964844 69.355469 88.019531 69.414062 C 88.269531 69.679688 88.519531 69.945312 88.761719 70.210938 C 88.816406 70.265625 88.867188 70.324219 88.917969 70.378906 C 89.160156 70.644531 89.398438 70.910156 89.632812 71.175781 C 90.410156 71.664062 91.207031 72.015625 91.996094 72.246094 C 92.074219 72.273438 92.152344 72.292969 92.234375 72.3125 C 92.5625 72.398438 92.894531 72.464844 93.222656 72.511719 C 93.308594 72.523438 93.398438 72.535156 93.484375 72.542969 C 93.855469 72.582031 94.21875 72.597656 94.582031 72.585938 C 94.683594 72.582031 94.785156 72.578125 94.886719 72.570312 C 95.316406 72.542969 95.742188 72.484375 96.15625 72.390625 C 96.285156 72.363281 96.414062 72.332031 96.542969 72.296875 C 99.191406 71.578125 101.394531 69.589844 102.382812 67.03125 C 102.46875 66.8125 102.542969 66.585938 102.609375 66.355469 C 102.726562 65.957031 102.8125 65.542969 102.867188 65.121094 C 102.890625 64.945312 102.910156 64.769531 102.917969 64.589844 C 102.933594 64.390625 102.941406 64.191406 102.9375 63.988281 C 102.929688 63.859375 102.917969 63.726562 102.898438 63.597656 " fill-opacity="1" fill-rule="nonzero"></path></g><g clip-path="url(#5313ee1ef8)"><path fill="#cb751d" d="M 102.609375 66.355469 C 102.542969 66.585938 102.46875 66.8125 102.382812 67.03125 C 102.339844 67.066406 102.300781 67.097656 102.257812 67.128906 C 102.148438 67.210938 102.035156 67.296875 101.917969 67.378906 L 101.652344 67.570312 C 101.503906 67.683594 101.347656 67.804688 101.191406 67.9375 C 101.023438 68.074219 100.855469 68.214844 100.6875 68.355469 C 100.5 68.511719 100.316406 68.671875 100.128906 68.828125 C 99.71875 69.167969 99.34375 69.453125 99.003906 69.714844 C 98.878906 69.808594 98.761719 69.902344 98.65625 69.996094 C 98.59375 70.046875 98.554688 70.078125 98.488281 70.140625 L 98.304688 70.316406 C 98.0625 70.554688 97.824219 70.796875 97.59375 71.050781 C 97.230469 71.449219 96.878906 71.867188 96.542969 72.296875 C 96.414062 72.332031 96.285156 72.363281 96.15625 72.390625 C 96.550781 71.851562 96.960938 71.335938 97.394531 70.839844 C 97.621094 70.578125 97.855469 70.324219 98.09375 70.078125 L 98.277344 69.894531 L 98.4375 69.742188 C 98.546875 69.640625 98.667969 69.539062 98.792969 69.433594 C 99.050781 69.222656 99.300781 69.011719 99.554688 68.808594 C 99.695312 68.6875 99.832031 68.574219 99.972656 68.457031 L 100.355469 68.121094 C 100.601562 67.910156 100.84375 67.710938 101.070312 67.527344 C 101.1875 67.433594 101.300781 67.34375 101.410156 67.261719 L 101.8125 66.972656 C 102.09375 66.765625 102.359375 66.558594 102.609375 66.355469 " fill-opacity="1" fill-rule="nonzero"></path></g><g clip-path="url(#58c572a903)"><path fill="#cb751d" d="M 102.917969 64.589844 C 102.910156 64.769531 102.890625 64.945312 102.867188 65.121094 C 102.832031 65.152344 102.792969 65.183594 102.757812 65.214844 C 102.382812 65.519531 101.996094 65.84375 101.578125 66.164062 C 101.375 66.320312 101.121094 66.496094 100.972656 66.609375 C 100.796875 66.738281 100.621094 66.878906 100.445312 67.023438 C 100.265625 67.171875 100.085938 67.324219 99.902344 67.472656 C 99.714844 67.632812 99.523438 67.796875 99.335938 67.957031 C 98.933594 68.289062 98.542969 68.585938 98.171875 68.882812 C 98.03125 68.988281 97.902344 69.101562 97.773438 69.210938 C 97.652344 69.316406 97.523438 69.445312 97.390625 69.570312 C 97.136719 69.828125 96.886719 70.085938 96.644531 70.355469 C 96.160156 70.890625 95.703125 71.453125 95.269531 72.035156 C 95.140625 72.210938 95.011719 72.390625 94.886719 72.570312 C 94.785156 72.578125 94.683594 72.582031 94.582031 72.585938 C 94.742188 72.34375 94.910156 72.105469 95.082031 71.871094 C 95.511719 71.273438 95.964844 70.695312 96.445312 70.144531 C 96.683594 69.867188 96.929688 69.597656 97.183594 69.332031 L 97.375 69.132812 L 97.5625 68.953125 C 97.691406 68.832031 97.824219 68.714844 97.960938 68.597656 C 98.230469 68.375 98.5 68.152344 98.765625 67.933594 C 99.039062 67.707031 99.316406 67.464844 99.570312 67.242188 C 99.828125 67.019531 100.085938 66.804688 100.34375 66.597656 C 100.46875 66.496094 100.597656 66.398438 100.726562 66.300781 L 101.144531 66 C 101.78125 65.535156 102.351562 65.042969 102.917969 64.589844 " fill-opacity="1" fill-rule="nonzero"></path></g><g clip-path="url(#8710191da7)"><path fill="#cb751d" d="M 102.898438 63.597656 C 102.613281 63.8125 102.339844 64.03125 102.066406 64.257812 C 101.683594 64.574219 101.296875 64.894531 100.898438 65.203125 C 100.699219 65.355469 100.488281 65.5 100.289062 65.644531 C 100.089844 65.792969 99.894531 65.949219 99.703125 66.109375 C 99.3125 66.421875 98.933594 66.757812 98.539062 67.085938 C 98.148438 67.410156 97.742188 67.722656 97.335938 68.046875 C 97.035156 68.289062 96.746094 68.554688 96.480469 68.828125 C 96.210938 69.101562 95.945312 69.375 95.691406 69.660156 C 95.183594 70.226562 94.707031 70.820312 94.261719 71.433594 C 93.992188 71.792969 93.734375 72.164062 93.484375 72.542969 C 93.398438 72.535156 93.308594 72.523438 93.222656 72.511719 C 93.496094 72.085938 93.777344 71.671875 94.074219 71.265625 C 94.519531 70.640625 94.992188 70.03125 95.496094 69.449219 C 95.746094 69.152344 96.003906 68.867188 96.273438 68.585938 C 96.40625 68.445312 96.542969 68.300781 96.6875 68.164062 C 96.835938 68.023438 96.980469 67.890625 97.132812 67.761719 C 97.414062 67.519531 97.695312 67.289062 97.96875 67.058594 C 98.25 66.832031 98.511719 66.601562 98.785156 66.363281 C 99.058594 66.128906 99.332031 65.898438 99.609375 65.675781 C 99.753906 65.5625 99.898438 65.449219 100.042969 65.34375 L 100.476562 65.03125 C 101.261719 64.457031 101.992188 63.78125 102.835938 63.175781 C 102.863281 63.316406 102.882812 63.457031 102.898438 63.597656 " fill-opacity="1" fill-rule="nonzero"></path></g><g clip-path="url(#4433a62928)"><path fill="#cb751d" d="M 102.636719 62.34375 C 102.183594 62.652344 101.769531 62.980469 101.378906 63.296875 C 100.980469 63.625 100.597656 63.945312 100.21875 64.238281 C 100.019531 64.390625 99.855469 64.503906 99.609375 64.683594 C 99.382812 64.851562 99.167969 65.019531 98.957031 65.191406 C 98.746094 65.363281 98.542969 65.539062 98.339844 65.710938 C 98.140625 65.875 97.945312 66.042969 97.746094 66.214844 C 97.335938 66.542969 96.921875 66.878906 96.503906 67.214844 C 96.339844 67.351562 96.175781 67.492188 96.015625 67.640625 C 95.9375 67.714844 95.851562 67.796875 95.78125 67.871094 L 95.566406 68.082031 C 95.28125 68.375 95.003906 68.667969 94.742188 68.96875 C 94.210938 69.566406 93.714844 70.1875 93.25 70.828125 C 92.894531 71.3125 92.558594 71.804688 92.234375 72.3125 C 92.152344 72.292969 92.074219 72.273438 91.996094 72.246094 C 92.335938 71.707031 92.691406 71.175781 93.066406 70.65625 C 93.527344 70.003906 94.019531 69.367188 94.546875 68.75 C 94.808594 68.441406 95.082031 68.136719 95.363281 67.835938 L 95.574219 67.613281 C 95.65625 67.535156 95.734375 67.449219 95.8125 67.371094 C 95.976562 67.214844 96.136719 67.066406 96.300781 66.925781 C 96.605469 66.660156 96.898438 66.417969 97.179688 66.1875 C 97.3125 66.074219 97.449219 65.960938 97.582031 65.847656 C 97.722656 65.726562 97.859375 65.605469 98 65.488281 C 98.285156 65.238281 98.574219 64.992188 98.882812 64.746094 C 99.035156 64.625 99.195312 64.5 99.359375 64.382812 L 99.804688 64.058594 C 100.332031 63.671875 100.867188 63.21875 101.460938 62.742188 C 101.785156 62.484375 102.136719 62.214844 102.515625 61.964844 C 102.558594 62.089844 102.601562 62.214844 102.636719 62.34375 " fill-opacity="1" fill-rule="nonzero"></path></g><path fill="#cb751d" d="M 101.042969 59.179688 C 100.832031 59.324219 100.609375 59.472656 100.378906 59.621094 C 100.050781 59.835938 99.722656 60.003906 99.394531 60.1875 C 99.0625 60.367188 98.730469 60.542969 98.398438 60.714844 C 98.199219 60.816406 98 60.917969 97.800781 61.015625 C 97.558594 61.136719 97.324219 61.238281 97.097656 61.328125 C 96.652344 61.503906 96.242188 61.632812 95.875 61.753906 L 95.609375 61.839844 L 95.480469 61.878906 L 95.425781 61.898438 L 95.390625 61.90625 C 95.300781 61.933594 95.195312 61.976562 95.074219 62.03125 C 94.839844 62.144531 94.578125 62.300781 94.292969 62.5 C 94.019531 62.707031 93.789062 62.828125 93.652344 62.902344 L 93.5625 62.953125 C 93.53125 62.964844 93.53125 62.964844 93.515625 62.96875 C 93.496094 62.976562 93.472656 62.988281 93.449219 62.996094 C 93.4375 63.003906 93.421875 63.011719 93.40625 63.019531 C 93.382812 63.039062 93.355469 63.0625 93.328125 63.09375 C 93.265625 63.148438 93.195312 63.222656 93.113281 63.3125 L 92.828125 63.628906 C 92.773438 63.6875 92.710938 63.75 92.648438 63.8125 C 92.605469 63.855469 92.585938 63.871094 92.554688 63.898438 C 92.320312 64.117188 92.09375 64.414062 91.851562 64.785156 C 91.734375 64.972656 91.609375 65.175781 91.476562 65.394531 C 91.355469 65.601562 91.230469 65.808594 91.105469 66.015625 C 90.867188 66.417969 90.628906 66.859375 90.375 67.316406 C 90.226562 67.585938 90.070312 67.863281 89.90625 68.140625 C 89.765625 68.367188 89.652344 68.578125 89.539062 68.816406 C 89.3125 69.289062 89.121094 69.8125 88.921875 70.363281 L 88.917969 70.378906 C 88.867188 70.324219 88.816406 70.265625 88.761719 70.210938 C 88.9375 69.679688 89.117188 69.179688 89.328125 68.71875 C 89.382812 68.597656 89.441406 68.480469 89.503906 68.363281 L 89.597656 68.191406 L 89.703125 68.011719 C 89.855469 67.742188 90.011719 67.46875 90.167969 67.195312 C 90.425781 66.738281 90.664062 66.300781 90.902344 65.894531 C 91.027344 65.6875 91.152344 65.480469 91.28125 65.273438 C 91.410156 65.054688 91.53125 64.851562 91.652344 64.664062 C 91.894531 64.285156 92.132812 63.972656 92.378906 63.738281 L 92.421875 63.695312 L 92.445312 63.675781 L 92.480469 63.644531 L 92.648438 63.464844 L 92.925781 63.160156 C 93.007812 63.066406 93.078125 62.992188 93.140625 62.929688 C 93.167969 62.902344 93.199219 62.875 93.226562 62.851562 C 93.246094 62.835938 93.261719 62.824219 93.28125 62.8125 C 93.308594 62.792969 93.335938 62.78125 93.367188 62.765625 C 93.382812 62.757812 93.390625 62.757812 93.417969 62.738281 L 93.511719 62.6875 C 93.652344 62.609375 93.871094 62.488281 94.125 62.296875 C 94.417969 62.085938 94.691406 61.910156 94.945312 61.785156 C 95.070312 61.722656 95.1875 61.671875 95.289062 61.640625 C 95.460938 61.578125 95.628906 61.519531 95.800781 61.460938 C 96.175781 61.332031 96.585938 61.191406 97.027344 61.003906 C 97.246094 60.910156 97.476562 60.804688 97.714844 60.683594 C 97.902344 60.582031 98.09375 60.476562 98.28125 60.375 C 98.71875 60.140625 99.148438 59.898438 99.578125 59.65625 C 99.683594 59.59375 99.789062 59.535156 99.898438 59.46875 L 100.214844 59.265625 C 100.421875 59.132812 100.621094 58.996094 100.816406 58.863281 C 100.894531 58.96875 100.972656 59.078125 101.042969 59.179688 " fill-opacity="1" fill-rule="nonzero"></path><path fill="#cb751d" d="M 100.328125 58.242188 C 100.128906 58.375 99.925781 58.511719 99.71875 58.644531 C 99.402344 58.847656 99.082031 59.011719 98.761719 59.191406 C 98.441406 59.363281 98.117188 59.535156 97.789062 59.703125 L 97.511719 59.84375 C 97.414062 59.890625 97.335938 59.933594 97.222656 59.988281 C 97.007812 60.089844 96.800781 60.179688 96.59375 60.257812 C 96.183594 60.417969 95.792969 60.539062 95.421875 60.660156 C 95.246094 60.722656 95.070312 60.78125 94.894531 60.839844 C 94.75 60.886719 94.601562 60.953125 94.449219 61.03125 C 94.152344 61.179688 93.847656 61.371094 93.546875 61.585938 C 93.347656 61.730469 93.160156 61.832031 93.007812 61.914062 L 92.8125 62.023438 C 92.753906 62.054688 92.699219 62.09375 92.644531 62.136719 C 92.511719 62.238281 92.351562 62.40625 92.1875 62.585938 L 91.925781 62.871094 L 91.660156 63.136719 C 91.347656 63.445312 91.078125 63.820312 90.816406 64.226562 C 90.5625 64.628906 90.296875 65.078125 90.046875 65.496094 C 89.800781 65.921875 89.5625 66.367188 89.3125 66.8125 C 89.167969 67.074219 89.019531 67.332031 88.863281 67.589844 C 88.714844 67.839844 88.582031 68.097656 88.457031 68.359375 C 88.292969 68.703125 88.152344 69.054688 88.019531 69.414062 C 87.964844 69.355469 87.910156 69.300781 87.851562 69.242188 C 87.96875 68.910156 88.097656 68.582031 88.246094 68.257812 C 88.367188 67.988281 88.507812 67.722656 88.660156 67.464844 C 88.808594 67.207031 88.957031 66.953125 89.105469 66.691406 C 89.355469 66.25 89.597656 65.804688 89.847656 65.375 C 90.101562 64.949219 90.363281 64.515625 90.621094 64.101562 C 90.878906 63.691406 91.160156 63.300781 91.484375 62.972656 L 91.609375 62.851562 L 91.746094 62.710938 L 92 62.429688 C 92.164062 62.25 92.320312 62.074219 92.476562 61.949219 C 92.597656 61.847656 92.714844 61.785156 92.871094 61.695312 C 93.023438 61.609375 93.199219 61.515625 93.378906 61.382812 C 93.691406 61.160156 94.003906 60.949219 94.324219 60.78125 C 94.484375 60.699219 94.644531 60.625 94.800781 60.566406 C 94.984375 60.5 95.167969 60.433594 95.347656 60.371094 C 95.726562 60.238281 96.117188 60.105469 96.515625 59.941406 C 96.714844 59.855469 96.917969 59.765625 97.121094 59.660156 C 97.304688 59.5625 97.488281 59.464844 97.671875 59.367188 C 98.097656 59.136719 98.519531 58.902344 98.933594 58.667969 C 99.328125 58.449219 99.714844 58.1875 100.078125 57.9375 C 100.160156 58.039062 100.246094 58.140625 100.328125 58.242188 " fill-opacity="1" fill-rule="nonzero"></path><path fill="#cb751d" d="M 99.550781 57.34375 C 99.386719 57.453125 99.222656 57.5625 99.054688 57.667969 C 98.757812 57.859375 98.441406 58.023438 98.128906 58.195312 C 97.816406 58.363281 97.5 58.527344 97.183594 58.691406 C 96.46875 59.089844 95.726562 59.328125 94.96875 59.574219 C 94.777344 59.636719 94.59375 59.695312 94.398438 59.765625 C 94.199219 59.84375 94.011719 59.929688 93.828125 60.027344 C 93.460938 60.21875 93.121094 60.445312 92.796875 60.675781 C 92.675781 60.757812 92.535156 60.832031 92.367188 60.921875 C 92.207031 61.007812 92.003906 61.132812 91.839844 61.273438 C 91.609375 61.476562 91.433594 61.671875 91.265625 61.855469 C 91.179688 61.949219 91.101562 62.035156 91.023438 62.113281 L 90.761719 62.371094 C 90.375 62.773438 90.058594 63.226562 89.78125 63.667969 C 89.644531 63.886719 89.511719 64.105469 89.386719 64.320312 L 89.191406 64.636719 L 88.992188 64.972656 C 88.730469 65.425781 88.492188 65.875 88.25 66.308594 C 88.105469 66.5625 87.96875 66.804688 87.824219 67.042969 C 87.664062 67.3125 87.507812 67.613281 87.371094 67.898438 C 87.28125 68.097656 87.195312 68.292969 87.117188 68.484375 C 87.058594 68.425781 87.003906 68.367188 86.945312 68.3125 C 87.011719 68.140625 87.085938 67.96875 87.164062 67.796875 C 87.230469 67.648438 87.300781 67.496094 87.378906 67.351562 L 87.5 67.128906 L 87.617188 66.917969 C 87.757812 66.683594 87.898438 66.441406 88.042969 66.1875 C 88.285156 65.757812 88.527344 65.308594 88.792969 64.855469 L 88.992188 64.511719 L 89.183594 64.199219 C 89.320312 63.976562 89.453125 63.757812 89.585938 63.542969 C 89.863281 63.09375 90.1875 62.628906 90.589844 62.207031 L 90.84375 61.953125 C 90.914062 61.878906 90.992188 61.792969 91.074219 61.703125 C 91.246094 61.515625 91.417969 61.308594 91.671875 61.089844 C 91.761719 61.007812 91.859375 60.9375 91.957031 60.871094 C 92.058594 60.804688 92.148438 60.753906 92.230469 60.707031 C 92.398438 60.613281 92.53125 60.539062 92.628906 60.472656 C 92.964844 60.230469 93.316406 59.988281 93.703125 59.777344 C 93.898438 59.671875 94.097656 59.574219 94.3125 59.488281 C 94.519531 59.410156 94.703125 59.347656 94.894531 59.28125 C 95.277344 59.148438 95.648438 59.019531 96.007812 58.875 C 96.183594 58.804688 96.363281 58.726562 96.53125 58.640625 C 96.710938 58.546875 96.886719 58.449219 97.0625 58.355469 C 97.476562 58.132812 97.886719 57.90625 98.292969 57.675781 C 98.636719 57.488281 98.960938 57.269531 99.28125 57.054688 C 99.375 57.148438 99.464844 57.246094 99.550781 57.34375 " fill-opacity="1" fill-rule="nonzero"></path><path fill="#cb751d" d="M 98.722656 56.476562 C 98.613281 56.550781 98.5 56.621094 98.390625 56.691406 C 98.109375 56.875 97.800781 57.035156 97.496094 57.199219 C 97.191406 57.363281 96.886719 57.523438 96.574219 57.679688 L 96.3125 57.8125 C 96.226562 57.855469 96.128906 57.90625 96.0625 57.933594 C 95.910156 58 95.753906 58.0625 95.589844 58.121094 C 95.257812 58.242188 94.894531 58.355469 94.511719 58.480469 L 94.222656 58.582031 C 94.117188 58.617188 94.035156 58.644531 93.898438 58.699219 C 93.648438 58.796875 93.417969 58.910156 93.203125 59.027344 C 92.773438 59.261719 92.394531 59.515625 92.050781 59.761719 C 92.007812 59.78125 91.90625 59.832031 91.730469 59.929688 L 91.585938 60.015625 C 91.535156 60.046875 91.464844 60.089844 91.402344 60.132812 C 91.273438 60.21875 91.152344 60.308594 91.035156 60.410156 C 90.960938 60.480469 90.882812 60.550781 90.8125 60.625 C 90.746094 60.6875 90.683594 60.75 90.628906 60.808594 L 90.339844 61.128906 C 90.253906 61.21875 90.183594 61.296875 90.121094 61.355469 C 90.089844 61.386719 90.0625 61.410156 90.039062 61.433594 L 89.863281 61.605469 C 89.398438 62.101562 89.042969 62.632812 88.746094 63.105469 C 88.613281 63.332031 88.472656 63.554688 88.339844 63.78125 L 88.144531 64.097656 L 87.9375 64.457031 C 87.6875 64.902344 87.4375 65.351562 87.183594 65.804688 C 87.046875 66.050781 86.914062 66.277344 86.785156 66.492188 L 86.652344 66.71875 L 86.523438 66.957031 C 86.441406 67.121094 86.363281 67.28125 86.289062 67.441406 C 86.265625 67.492188 86.246094 67.539062 86.222656 67.589844 C 86.164062 67.53125 86.105469 67.472656 86.046875 67.417969 C 86.054688 67.390625 86.066406 67.363281 86.082031 67.335938 C 86.152344 67.171875 86.234375 67.007812 86.316406 66.84375 L 86.449219 66.59375 L 86.519531 66.472656 L 86.578125 66.371094 C 86.707031 66.15625 86.835938 65.929688 86.980469 65.683594 C 87.234375 65.230469 87.484375 64.78125 87.734375 64.332031 L 87.949219 63.96875 L 88.136719 63.660156 C 88.277344 63.433594 88.414062 63.207031 88.550781 62.980469 C 88.847656 62.5 89.214844 61.953125 89.691406 61.441406 L 89.785156 61.347656 L 89.828125 61.300781 L 89.855469 61.273438 L 89.863281 61.269531 C 89.886719 61.25 89.910156 61.226562 89.9375 61.199219 C 89.996094 61.140625 90.066406 61.066406 90.148438 60.972656 L 90.445312 60.644531 C 90.5 60.585938 90.5625 60.519531 90.628906 60.453125 C 90.703125 60.375 90.785156 60.300781 90.867188 60.226562 C 90.988281 60.117188 91.117188 60.019531 91.25 59.929688 C 91.316406 59.882812 91.394531 59.832031 91.445312 59.800781 L 91.589844 59.714844 C 91.769531 59.613281 91.859375 59.566406 91.882812 59.558594 C 92.238281 59.300781 92.628906 59.027344 93.085938 58.773438 C 93.3125 58.648438 93.554688 58.523438 93.824219 58.414062 C 93.898438 58.382812 93.945312 58.367188 93.996094 58.347656 L 94.148438 58.292969 L 94.441406 58.191406 C 94.828125 58.054688 95.179688 57.933594 95.5 57.808594 C 95.65625 57.746094 95.804688 57.683594 95.9375 57.621094 C 96.109375 57.527344 96.28125 57.4375 96.457031 57.34375 C 96.859375 57.128906 97.257812 56.910156 97.648438 56.6875 C 97.851562 56.578125 98.039062 56.460938 98.222656 56.34375 C 98.292969 56.296875 98.367188 56.246094 98.4375 56.199219 C 98.535156 56.289062 98.628906 56.382812 98.722656 56.476562 " fill-opacity="1" fill-rule="nonzero"></path><path fill="#cb751d" d="M 91.992188 50.792969 C 91.910156 50.828125 91.820312 50.871094 91.71875 50.917969 C 91.570312 50.992188 91.382812 51.097656 91.222656 51.207031 C 90.984375 51.371094 90.824219 51.496094 90.714844 51.570312 C 90.59375 51.644531 90.578125 51.640625 90.527344 51.660156 C 90.429688 51.695312 90.238281 51.765625 89.996094 51.867188 C 89.875 51.917969 89.734375 51.980469 89.582031 52.058594 C 89.507812 52.097656 89.425781 52.144531 89.347656 52.191406 L 89.152344 52.3125 C 88.96875 52.421875 88.789062 52.53125 88.605469 52.640625 L 88.328125 52.804688 L 88.1875 52.886719 C 88.171875 52.898438 88.132812 52.925781 88.101562 52.945312 L 88.003906 53.015625 C 87.289062 53.527344 86.832031 54.050781 86.46875 54.398438 C 86.378906 54.484375 86.296875 54.5625 86.21875 54.628906 L 85.945312 54.863281 C 85.726562 55.046875 85.421875 55.308594 85.121094 55.648438 C 85.039062 55.738281 84.980469 55.808594 84.921875 55.878906 L 84.757812 56.089844 C 84.648438 56.230469 84.550781 56.363281 84.457031 56.496094 C 84.363281 56.625 84.277344 56.746094 84.191406 56.875 L 83.9375 57.269531 L 83.433594 58.066406 L 83.308594 58.261719 L 83.246094 58.363281 L 83.164062 58.511719 C 83.054688 58.714844 82.96875 58.90625 82.902344 59.0625 L 82.746094 59.441406 L 82.664062 59.617188 L 82.605469 59.730469 C 82.453125 60.042969 82.316406 60.351562 82.195312 60.660156 C 81.945312 61.269531 81.75 61.871094 81.574219 62.449219 C 81.523438 62.632812 81.46875 62.832031 81.417969 63.03125 C 81.3125 62.933594 81.207031 62.835938 81.101562 62.738281 L 81.179688 62.453125 C 81.292969 62.066406 81.417969 61.664062 81.5625 61.25 C 81.707031 60.839844 81.867188 60.414062 82.0625 59.984375 C 82.109375 59.875 82.160156 59.765625 82.210938 59.65625 L 82.34375 59.390625 L 82.507812 58.988281 C 82.59375 58.789062 82.710938 58.511719 82.886719 58.207031 C 82.914062 58.164062 82.921875 58.144531 82.9375 58.121094 L 82.980469 58.054688 L 83.066406 57.914062 L 83.238281 57.640625 C 83.46875 57.277344 83.703125 56.90625 83.9375 56.546875 C 84.058594 56.378906 84.183594 56.195312 84.328125 56.007812 C 84.398438 55.910156 84.476562 55.8125 84.554688 55.714844 C 84.636719 55.609375 84.707031 55.523438 84.828125 55.386719 C 85.046875 55.144531 85.273438 54.933594 85.457031 54.773438 C 85.644531 54.609375 85.792969 54.488281 85.90625 54.394531 C 86.085938 54.25 86.332031 54.003906 86.648438 53.695312 C 86.96875 53.390625 87.367188 53.011719 87.90625 52.652344 L 87.960938 52.617188 L 87.996094 52.597656 L 88.0625 52.558594 L 88.199219 52.480469 L 88.46875 52.324219 C 88.652344 52.222656 88.832031 52.117188 89.007812 52.015625 L 89.027344 52.003906 L 89.121094 51.945312 L 89.246094 51.871094 C 89.328125 51.824219 89.40625 51.78125 89.484375 51.746094 C 89.636719 51.667969 89.777344 51.609375 89.898438 51.5625 C 90.015625 51.511719 90.121094 51.476562 90.203125 51.445312 L 90.316406 51.40625 C 90.339844 51.398438 90.378906 51.382812 90.386719 51.382812 C 90.421875 51.378906 90.417969 51.402344 90.53125 51.332031 C 90.636719 51.265625 90.800781 51.136719 91.054688 50.96875 C 91.226562 50.855469 91.429688 50.738281 91.589844 50.664062 C 91.644531 50.636719 91.695312 50.613281 91.742188 50.589844 C 91.828125 50.660156 91.910156 50.726562 91.992188 50.792969 " fill-opacity="1" fill-rule="nonzero"></path><path fill="#cb751d" d="M 93.050781 51.632812 C 92.734375 51.769531 92.335938 51.890625 91.90625 52.167969 C 91.722656 52.289062 91.570312 52.40625 91.429688 52.503906 C 91.289062 52.601562 91.179688 52.664062 91.046875 52.71875 C 90.863281 52.789062 90.679688 52.863281 90.492188 52.9375 C 90.382812 52.980469 90.273438 53.03125 90.15625 53.089844 C 90.101562 53.117188 90.042969 53.152344 89.980469 53.183594 L 89.824219 53.28125 C 89.644531 53.390625 89.460938 53.496094 89.277344 53.605469 L 89.003906 53.769531 L 88.863281 53.855469 C 88.820312 53.878906 88.761719 53.925781 88.710938 53.957031 C 88.132812 54.363281 87.710938 54.835938 87.316406 55.214844 C 87.113281 55.414062 86.949219 55.5625 86.722656 55.75 C 86.5 55.9375 86.246094 56.15625 86.003906 56.425781 C 85.773438 56.6875 85.59375 56.929688 85.414062 57.179688 C 85.238281 57.421875 85.082031 57.667969 84.917969 57.921875 L 84.4375 58.679688 L 84.320312 58.871094 L 84.261719 58.964844 L 84.195312 59.085938 C 84.109375 59.242188 84.039062 59.398438 83.976562 59.542969 L 83.8125 59.929688 L 83.738281 60.097656 L 83.648438 60.28125 C 83.507812 60.5625 83.386719 60.84375 83.273438 61.128906 C 83.042969 61.695312 82.859375 62.265625 82.691406 62.832031 C 82.605469 63.113281 82.53125 63.414062 82.453125 63.703125 L 82.390625 63.9375 C 82.285156 63.84375 82.179688 63.746094 82.078125 63.644531 L 82.289062 62.832031 C 82.402344 62.449219 82.523438 62.066406 82.65625 61.671875 C 82.792969 61.28125 82.945312 60.886719 83.121094 60.492188 C 83.164062 60.394531 83.210938 60.292969 83.257812 60.195312 L 83.390625 59.929688 C 83.445312 59.808594 83.507812 59.65625 83.589844 59.464844 C 83.667969 59.273438 83.765625 59.042969 83.902344 58.800781 C 84.019531 58.609375 84.125 58.445312 84.234375 58.265625 C 84.457031 57.917969 84.679688 57.566406 84.90625 57.222656 C 85.019531 57.054688 85.140625 56.882812 85.273438 56.707031 C 85.339844 56.621094 85.410156 56.53125 85.480469 56.445312 C 85.554688 56.351562 85.621094 56.273438 85.714844 56.167969 C 85.890625 55.96875 86.078125 55.792969 86.246094 55.648438 L 86.695312 55.269531 C 86.933594 55.070312 87.199219 54.804688 87.5 54.511719 C 87.804688 54.21875 88.15625 53.898438 88.59375 53.609375 C 88.65625 53.570312 88.691406 53.554688 88.738281 53.527344 L 88.875 53.449219 L 89.144531 53.292969 C 89.324219 53.191406 89.503906 53.085938 89.679688 52.984375 C 89.917969 52.832031 90.179688 52.714844 90.386719 52.636719 C 90.5625 52.570312 90.738281 52.507812 90.914062 52.441406 C 91.027344 52.398438 91.113281 52.355469 91.25 52.265625 C 91.386719 52.175781 91.542969 52.058594 91.738281 51.929688 C 91.867188 51.84375 92.015625 51.765625 92.144531 51.707031 C 92.273438 51.640625 92.398438 51.59375 92.511719 51.546875 C 92.617188 51.507812 92.714844 51.472656 92.800781 51.4375 C 92.882812 51.5 92.96875 51.566406 93.050781 51.632812 " fill-opacity="1" fill-rule="nonzero"></path><path fill="#cb751d" d="M 94.066406 52.4375 C 94.035156 52.453125 94.007812 52.464844 93.980469 52.480469 C 93.933594 52.503906 93.859375 52.550781 93.800781 52.582031 C 93.308594 52.832031 92.878906 52.941406 92.59375 53.128906 C 92.464844 53.207031 92.316406 53.320312 92.148438 53.4375 C 91.984375 53.558594 91.777344 53.6875 91.570312 53.777344 C 91.359375 53.871094 91.164062 53.9375 90.984375 54.007812 C 90.894531 54.042969 90.8125 54.082031 90.730469 54.121094 C 90.691406 54.136719 90.65625 54.160156 90.617188 54.179688 L 90.496094 54.25 C 90.316406 54.359375 90.132812 54.46875 89.953125 54.574219 L 89.679688 54.738281 C 89.585938 54.792969 89.492188 54.847656 89.417969 54.902344 C 88.976562 55.199219 88.585938 55.621094 88.160156 56.035156 C 87.953125 56.246094 87.71875 56.453125 87.496094 56.636719 C 87.273438 56.824219 87.066406 57.003906 86.890625 57.203125 C 86.535156 57.613281 86.199219 58.09375 85.898438 58.574219 L 85.441406 59.296875 C 85.371094 59.414062 85.28125 59.539062 85.226562 59.652344 C 85.164062 59.769531 85.105469 59.890625 85.050781 60.023438 L 84.882812 60.425781 C 84.824219 60.558594 84.75 60.707031 84.691406 60.828125 C 84.566406 61.078125 84.453125 61.335938 84.351562 61.597656 C 84.140625 62.121094 83.964844 62.660156 83.800781 63.210938 C 83.71875 63.488281 83.652344 63.761719 83.582031 64.039062 L 83.472656 64.453125 L 83.421875 64.660156 L 83.394531 64.761719 L 83.378906 64.851562 C 83.378906 64.855469 83.375 64.859375 83.375 64.863281 C 83.269531 64.761719 83.160156 64.660156 83.054688 64.558594 C 83.070312 64.484375 83.089844 64.414062 83.109375 64.339844 L 83.40625 63.210938 C 83.515625 62.839844 83.628906 62.464844 83.757812 62.097656 C 83.882812 61.726562 84.023438 61.363281 84.183594 61.003906 C 84.261719 60.824219 84.351562 60.640625 84.433594 60.46875 C 84.515625 60.296875 84.589844 60.121094 84.664062 59.9375 C 84.738281 59.757812 84.820312 59.570312 84.917969 59.394531 L 85.230469 58.890625 C 85.441406 58.558594 85.65625 58.222656 85.871094 57.894531 C 86.097656 57.570312 86.332031 57.246094 86.597656 56.945312 C 86.871094 56.640625 87.191406 56.394531 87.488281 56.140625 C 88.082031 55.632812 88.601562 54.996094 89.28125 54.570312 C 89.644531 54.363281 90 54.15625 90.351562 53.953125 C 90.683594 53.753906 91.058594 53.65625 91.433594 53.5 C 91.824219 53.339844 92.140625 53.066406 92.421875 52.890625 C 92.769531 52.675781 93.210938 52.570312 93.675781 52.335938 C 93.726562 52.3125 93.789062 52.273438 93.832031 52.25 C 93.910156 52.3125 93.988281 52.375 94.066406 52.4375 " fill-opacity="1" fill-rule="nonzero"></path><path fill="#cb751d" d="M 95.128906 53.292969 C 95 53.347656 94.894531 53.382812 94.8125 53.410156 L 94.644531 53.46875 C 94.628906 53.472656 94.621094 53.472656 94.617188 53.472656 C 94.617188 53.476562 94.621094 53.484375 94.609375 53.476562 L 94.582031 53.496094 L 94.511719 53.535156 C 94.46875 53.5625 94.433594 53.582031 94.386719 53.601562 C 94.0625 53.777344 93.800781 53.875 93.613281 53.949219 L 93.386719 54.039062 C 93.328125 54.066406 93.3125 54.070312 93.277344 54.085938 C 93.203125 54.128906 93.0625 54.234375 92.867188 54.375 C 92.679688 54.511719 92.378906 54.707031 92.09375 54.835938 C 91.824219 54.957031 91.625 55.023438 91.480469 55.082031 L 91.308594 55.148438 L 91.25 55.175781 L 91.230469 55.183594 L 91.167969 55.21875 C 90.824219 55.425781 90.476562 55.632812 90.128906 55.84375 C 89.820312 56.035156 89.460938 56.40625 89.007812 56.855469 C 88.898438 56.96875 88.773438 57.085938 88.640625 57.203125 C 88.503906 57.332031 88.386719 57.429688 88.273438 57.527344 C 88.050781 57.714844 87.890625 57.851562 87.777344 57.980469 C 87.507812 58.28125 87.15625 58.777344 86.878906 59.226562 L 86.445312 59.910156 L 86.28125 60.167969 L 86.253906 60.222656 C 86.214844 60.292969 86.175781 60.386719 86.125 60.5 L 85.953125 60.914062 C 85.917969 60.996094 85.878906 61.078125 85.835938 61.164062 L 85.734375 61.375 C 85.625 61.59375 85.523438 61.828125 85.429688 62.066406 C 85.238281 62.546875 85.074219 63.058594 84.914062 63.59375 C 84.832031 63.863281 84.777344 64.113281 84.707031 64.375 L 84.605469 64.761719 L 84.558594 64.953125 L 84.535156 65.050781 C 84.53125 65.070312 84.53125 65.078125 84.527344 65.09375 C 84.515625 65.203125 84.515625 65.410156 84.515625 65.730469 C 84.515625 65.792969 84.511719 65.863281 84.507812 65.933594 C 84.382812 65.808594 84.257812 65.691406 84.132812 65.574219 L 84.132812 65.542969 C 84.132812 65.355469 84.136719 65.203125 84.148438 65.089844 L 84.15625 65.007812 C 84.160156 64.984375 84.160156 64.964844 84.175781 64.910156 L 84.242188 64.648438 L 84.515625 63.589844 C 84.625 63.226562 84.734375 62.867188 84.851562 62.519531 C 84.972656 62.171875 85.101562 61.835938 85.242188 61.511719 L 85.351562 61.269531 L 85.480469 61.011719 C 85.589844 60.789062 85.671875 60.582031 85.742188 60.410156 C 85.8125 60.238281 85.871094 60.101562 85.9375 59.988281 L 86.230469 59.515625 C 86.429688 59.199219 86.628906 58.882812 86.835938 58.566406 C 86.949219 58.410156 87.054688 58.257812 87.164062 58.113281 C 87.21875 58.039062 87.273438 57.972656 87.328125 57.90625 C 87.378906 57.839844 87.441406 57.765625 87.480469 57.722656 C 87.664062 57.515625 87.9375 57.304688 88.28125 57.015625 C 88.636719 56.707031 88.929688 56.398438 89.207031 56.140625 C 89.476562 55.878906 89.734375 55.664062 89.96875 55.527344 C 90.324219 55.324219 90.675781 55.121094 91.027344 54.925781 C 91.082031 54.894531 91.113281 54.882812 91.171875 54.859375 C 91.234375 54.835938 91.300781 54.808594 91.367188 54.785156 C 91.519531 54.726562 91.710938 54.664062 91.960938 54.558594 C 92.226562 54.441406 92.503906 54.265625 92.6875 54.132812 C 92.878906 54 93.019531 53.898438 93.109375 53.851562 C 93.15625 53.828125 93.1875 53.816406 93.253906 53.789062 L 93.5 53.691406 C 93.695312 53.617188 93.953125 53.523438 94.265625 53.359375 C 94.304688 53.335938 94.34375 53.316406 94.386719 53.289062 C 94.417969 53.273438 94.464844 53.246094 94.472656 53.242188 C 94.484375 53.242188 94.5 53.234375 94.519531 53.230469 L 94.71875 53.160156 C 94.769531 53.144531 94.828125 53.125 94.890625 53.101562 C 94.972656 53.164062 95.050781 53.230469 95.128906 53.292969 " fill-opacity="1" fill-rule="nonzero"></path><path fill="#000000" d="M 71.03125 36.921875 C 72.652344 36.921875 72.46875 39.453125 70.855469 39.453125 C 69.230469 39.453125 69.414062 36.921875 71.03125 36.921875 " fill-opacity="1" fill-rule="nonzero"></path><path fill="#49a6b6" d="M 88.378906 9.910156 C 87.914062 8.242188 91.941406 11.023438 92.078125 12.175781 C 92.214844 13.332031 89.304688 13.210938 88.378906 9.910156 " fill-opacity="1" fill-rule="nonzero"></path><path fill="#49a6b6" d="M 97.5 37.171875 C 97.214844 37.792969 96.90625 38.402344 96.574219 39 C 95.804688 38.59375 95.011719 36.933594 96.054688 34.710938 C 96.5625 33.628906 97.304688 35.558594 97.5 37.171875 " fill-opacity="1" fill-rule="nonzero"></path><path fill="#49a6b6" d="M 92.078125 37.925781 C 92.207031 38.804688 91.140625 39.324219 90.527344 38.679688 C 90.160156 38.296875 89.820312 37.785156 89.542969 37.128906 C 89.160156 36.210938 90.433594 36.570312 91.636719 37.253906 C 91.875 37.390625 92.035156 37.632812 92.074219 37.902344 C 92.078125 37.910156 92.078125 37.917969 92.078125 37.925781 " fill-opacity="1" fill-rule="nonzero"></path><path fill="#49a6b6" d="M 95.390625 25.019531 C 95.132812 24.101562 97.347656 25.632812 97.425781 26.265625 C 97.5 26.902344 95.898438 26.835938 95.390625 25.019531 " fill-opacity="1" fill-rule="nonzero"></path><path fill="#49a6b6" d="M 89.945312 20.101562 C 91.761719 19.152344 92.699219 22.722656 92.503906 24.011719 C 92.308594 25.296875 90.691406 24.851562 89.976562 23.148438 C 89.257812 21.445312 89.21875 20.484375 89.945312 20.101562 " fill-opacity="1" fill-rule="nonzero"></path><path fill="#49a6b6" d="M 98.78125 20.214844 C 98.585938 21.5 96.96875 21.058594 96.25 19.355469 C 95.53125 17.652344 95.492188 16.6875 96.21875 16.308594 C 96.695312 16.058594 97.113281 16.121094 97.464844 16.375 C 97.988281 17.324219 98.421875 18.320312 98.777344 19.339844 C 98.8125 19.683594 98.8125 19.984375 98.78125 20.214844 " fill-opacity="1" fill-rule="nonzero"></path><path fill="#49a6b6" d="M 85.585938 7.703125 C 85.5625 8.3125 84.765625 9.023438 83.527344 9.171875 C 81.699219 9.394531 80.769531 9.164062 80.605469 8.359375 C 80.484375 7.761719 80.722656 7.347656 81.148438 7.078125 C 82.683594 7.191406 84.175781 7.394531 85.585938 7.703125 " fill-opacity="1" fill-rule="nonzero"></path><path fill="#49a6b6" d="M 92.507812 44.472656 C 91.382812 45.621094 90.144531 46.660156 88.792969 47.558594 C 88.433594 47.082031 88.550781 46.054688 89.316406 45.121094 C 90.484375 43.695312 91.320312 43.21875 91.988281 43.6875 C 92.304688 43.910156 92.464844 44.179688 92.507812 44.472656 " fill-opacity="1" fill-rule="nonzero"></path><path fill="#49a6b6" d="M 96.320312 14.554688 C 95.902344 14.683594 95.28125 14.515625 94.882812 14.003906 C 94.300781 13.269531 94.171875 12.765625 94.519531 12.421875 C 95.183594 13.09375 95.78125 13.804688 96.320312 14.554688 " fill-opacity="1" fill-rule="nonzero"></path><path fill="#49a6b6" d="M 95.257812 41.132812 C 94.984375 41.523438 94.707031 41.90625 94.414062 42.285156 C 93.9375 41.738281 93.820312 41.347656 94.0625 41.054688 C 94.40625 40.648438 94.855469 40.792969 95.257812 41.132812 " fill-opacity="1" fill-rule="nonzero"></path><path fill="#49a6b6" d="M 93.816406 32.96875 C 93.316406 33.308594 92.917969 32.292969 92.933594 31.910156 C 92.945312 31.527344 93.433594 31.601562 93.703125 32.074219 C 93.972656 32.550781 94.015625 32.832031 93.816406 32.96875 " fill-opacity="1" fill-rule="nonzero"></path><path fill="#49a6b6" d="M 87.804688 24.066406 C 88.195312 23.601562 88.847656 24.472656 88.9375 24.84375 C 89.027344 25.21875 88.535156 25.277344 88.152344 24.894531 C 87.765625 24.507812 87.648438 24.25 87.804688 24.066406 " fill-opacity="1" fill-rule="nonzero"></path><path fill="#49a6b6" d="M 91.542969 15.378906 C 91.933594 14.914062 92.585938 15.785156 92.675781 16.160156 C 92.765625 16.53125 92.277344 16.589844 91.890625 16.207031 C 91.503906 15.824219 91.386719 15.5625 91.542969 15.378906 " fill-opacity="1" fill-rule="nonzero"></path><path fill="#49a6b6" d="M 87.953125 41.21875 C 88.535156 41.378906 88.027344 42.339844 87.730469 42.578125 C 87.429688 42.820312 87.167969 42.398438 87.351562 41.882812 C 87.535156 41.371094 87.71875 41.15625 87.953125 41.21875 " fill-opacity="1" fill-rule="nonzero"></path><path fill="#49a6b6" d="M 99.753906 23.675781 C 99.699219 23.613281 99.644531 23.539062 99.597656 23.464844 C 99.039062 22.617188 98.921875 22.101562 99.277344 21.824219 C 99.332031 21.78125 99.382812 21.75 99.433594 21.726562 C 99.570312 22.367188 99.679688 23.015625 99.753906 23.675781 " fill-opacity="1" fill-rule="nonzero"></path><path fill="#49a6b6" d="M 99.777344 28.933594 C 99.628906 30.359375 99.355469 31.785156 98.964844 33.183594 C 98.464844 32.773438 97.992188 31.964844 98.089844 30.683594 C 98.277344 28.1875 97.792969 28.539062 98.4375 28.070312 C 98.996094 27.667969 99.519531 28.203125 99.777344 28.933594 " fill-opacity="1" fill-rule="nonzero"></path><path fill="#49a6b6" d="M 86.40625 14.0625 C 86.699219 13.640625 87.316406 14.261719 87.410156 14.789062 C 87.503906 15.316406 87.910156 15.910156 87.933594 16.167969 C 87.957031 16.429688 86.972656 16.425781 86.664062 15.285156 C 86.355469 14.140625 86.191406 14.375 86.40625 14.0625 " fill-opacity="1" fill-rule="nonzero"></path><path fill="#ffffff" d="M 86.601562 47.863281 L 83.265625 50.695312 L 81.238281 48.570312 Z M 86.601562 47.863281 " fill-opacity="1" fill-rule="nonzero"></path><path fill="#ffffff" d="M 80.363281 48.425781 L 76.773438 50.921875 L 74.960938 48.617188 Z M 80.363281 48.425781 " fill-opacity="1" fill-rule="nonzero"></path><path fill="#ffffff" d="M 73.632812 48.515625 L 69.730469 50.492188 L 68.25 47.957031 Z M 73.632812 48.515625 " fill-opacity="1" fill-rule="nonzero"></path><path fill="#000000" d="M 76.320312 48.824219 C 82.199219 48.824219 87.753906 47.949219 88.152344 47.886719 C 88.285156 47.867188 88.375 47.742188 88.351562 47.609375 C 88.332031 47.480469 88.210938 47.390625 88.078125 47.410156 C 87.910156 47.4375 71.347656 50.042969 65.015625 46.328125 C 64.988281 44.472656 64.394531 42.367188 64.367188 42.273438 C 64.332031 42.148438 64.199219 42.074219 64.070312 42.109375 C 63.945312 42.144531 63.871094 42.277344 63.90625 42.40625 C 63.914062 42.429688 64.535156 44.648438 64.535156 46.464844 C 64.535156 46.546875 64.582031 46.625 64.652344 46.667969 C 67.382812 48.339844 71.941406 48.824219 76.320312 48.824219 " fill-opacity="1" fill-rule="nonzero"></path><path fill="#b7ca3b" d="M 104.246094 19.746094 C 103.21875 20.589844 98.5625 23.929688 101.15625 27.464844 C 103.746094 30.996094 110.472656 27.78125 110.472656 27.78125 C 110.472656 27.78125 102.394531 30.070312 104.082031 35.164062 C 105.769531 40.253906 113.757812 36.652344 113.757812 36.652344 C 113.757812 36.652344 107.164062 36.527344 106.324219 42.730469 C 105.480469 48.933594 114.054688 46.582031 114.054688 46.582031 C 114.054688 46.582031 107.199219 45.9375 106.101562 51.066406 C 105.007812 56.195312 112.339844 56.621094 112.339844 56.621094 C 112.339844 56.621094 106.539062 53.488281 105.339844 58.664062 C 104.136719 63.84375 109.546875 66.78125 109.546875 66.78125 C 109.546875 66.78125 123.855469 46.28125 117.328125 30.863281 C 110.800781 15.441406 104.246094 19.746094 104.246094 19.746094 " fill-opacity="1" fill-rule="nonzero"></path><g clip-path="url(#a91165cc0c)"><path fill="#1f5167" d="M 151.335938 73.171875 C 149.515625 74.683594 147.773438 75.003906 143.21875 75 C 142.34375 75 141.359375 74.988281 140.25 74.972656 C 138.226562 74.9375 135.78125 74.886719 132.792969 74.855469 C 132.6875 74.855469 132.574219 74.855469 132.464844 74.851562 C 132.039062 74.847656 131.601562 74.84375 131.152344 74.839844 C 131.039062 74.839844 130.925781 74.839844 130.8125 74.839844 C 130.371094 74.835938 129.921875 74.832031 129.457031 74.832031 C 129.339844 74.832031 129.21875 74.832031 129.101562 74.828125 C 128.632812 74.828125 128.152344 74.828125 127.660156 74.828125 L 127.238281 74.828125 C 126.792969 74.828125 126.339844 74.828125 125.878906 74.828125 C 117.542969 74.855469 113.316406 75.078125 110.941406 74.800781 C 110.769531 74.785156 110.605469 74.761719 110.453125 74.734375 C 110.089844 74.675781 109.777344 74.597656 109.503906 74.503906 C 109.339844 74.449219 109.191406 74.386719 109.050781 74.3125 C 108.722656 74.148438 108.457031 73.9375 108.222656 73.671875 C 108.167969 73.617188 108.113281 73.554688 108.066406 73.488281 C 107.988281 73.394531 107.917969 73.292969 107.855469 73.191406 C 107.511719 72.648438 107.359375 72.070312 107.351562 71.449219 C 107.351562 71.09375 107.398438 70.722656 107.484375 70.335938 C 107.582031 69.886719 107.734375 69.417969 107.929688 68.921875 C 108.101562 68.484375 108.300781 68.03125 108.527344 67.554688 C 109.164062 66.214844 109.996094 64.695312 110.84375 62.957031 C 111.851562 60.886719 112.886719 58.503906 113.648438 55.722656 C 113.726562 55.445312 113.800781 55.164062 113.871094 54.875 C 114.171875 53.664062 114.417969 52.378906 114.585938 51.019531 C 115.085938 47.054688 114.789062 43.574219 114.277344 40.832031 C 114.277344 40.816406 114.273438 40.800781 114.273438 40.789062 C 113.773438 38.121094 113.066406 36.152344 112.6875 35.121094 C 111.601562 32.171875 110.226562 29.789062 108.765625 27.796875 C 107.191406 25.65625 105.523438 23.96875 104.007812 22.519531 C 103.699219 22.21875 103.398438 21.9375 103.105469 21.660156 C 102.585938 21.164062 102.089844 20.695312 101.640625 20.246094 C 100.757812 19.363281 100.027344 18.539062 99.542969 17.695312 C 98.886719 16.554688 98.675781 15.378906 99.144531 13.976562 C 99.6875 12.351562 100.96875 10.9375 102.703125 9.695312 C 102.933594 9.535156 103.171875 9.371094 103.417969 9.210938 C 103.675781 9.046875 103.941406 8.882812 104.210938 8.726562 C 104.523438 8.542969 104.84375 8.363281 105.175781 8.1875 C 106.203125 7.644531 107.3125 7.140625 108.464844 6.671875 C 108.9375 6.480469 109.421875 6.292969 109.910156 6.113281 C 110.183594 6.007812 110.460938 5.90625 110.738281 5.808594 C 110.75 5.804688 110.765625 5.800781 110.777344 5.796875 C 112.957031 5.027344 115.203125 4.363281 117.300781 3.789062 C 117.609375 3.703125 117.910156 3.621094 118.210938 3.539062 C 119.007812 3.324219 119.773438 3.121094 120.5 2.929688 C 125.601562 1.585938 130.746094 0.230469 135.082031 0.109375 C 136.183594 0.078125 137.234375 0.125 138.21875 0.273438 C 139.578125 0.476562 140.808594 0.875 141.878906 1.511719 C 142.308594 1.765625 142.710938 2.0625 143.089844 2.398438 C 143.402344 2.683594 143.691406 2.992188 143.953125 3.320312 C 144.089844 3.492188 144.222656 3.671875 144.34375 3.851562 C 144.566406 4.183594 144.765625 4.535156 144.941406 4.898438 C 145.3125 5.675781 145.578125 6.511719 145.746094 7.378906 C 145.792969 7.636719 145.832031 7.894531 145.867188 8.152344 C 145.871094 8.191406 145.875 8.234375 145.878906 8.273438 C 145.925781 8.675781 145.949219 9.078125 145.960938 9.488281 C 145.976562 10.257812 145.921875 11.039062 145.808594 11.808594 C 145.769531 12.078125 145.726562 12.34375 145.671875 12.601562 C 145.660156 12.652344 145.652344 12.699219 145.640625 12.746094 C 145.53125 13.277344 145.390625 13.796875 145.222656 14.304688 C 145.132812 14.582031 145.035156 14.855469 144.929688 15.125 C 144.878906 15.25 144.828125 15.371094 144.773438 15.496094 C 144.472656 16.203125 144.113281 16.871094 143.707031 17.476562 C 143.539062 17.730469 143.363281 17.96875 143.175781 18.199219 C 142.441406 19.117188 141.585938 19.847656 140.636719 20.300781 C 138.824219 21.167969 136.898438 20.929688 135 20.308594 C 134.714844 20.214844 134.433594 20.117188 134.152344 20.007812 C 133.71875 19.839844 133.28125 19.660156 132.851562 19.476562 C 132.582031 19.359375 132.316406 19.238281 132.054688 19.125 C 131.371094 18.816406 130.703125 18.511719 130.054688 18.242188 C 129.785156 18.128906 129.515625 18.023438 129.25 17.925781 C 128.777344 17.75 128.316406 17.601562 127.871094 17.507812 C 127.578125 17.4375 127.289062 17.394531 127.011719 17.375 C 126.375 17.324219 125.78125 17.40625 125.238281 17.667969 C 125.136719 17.71875 125.042969 17.773438 124.945312 17.832031 C 124.757812 17.953125 124.585938 18.09375 124.425781 18.253906 C 121.042969 21.628906 123.84375 33.339844 129.0625 33.753906 C 132.757812 34.046875 135.378906 28.480469 139.257812 28.867188 C 143.308594 29.269531 146.347656 35.933594 143.648438 39.925781 C 140.867188 44.039062 133.835938 42.570312 131.210938 46.582031 C 129.894531 48.601562 130.082031 51.40625 131.332031 53.78125 C 131.488281 54.089844 131.664062 54.386719 131.859375 54.675781 C 132.875 56.183594 134.347656 57.425781 136.128906 58.03125 C 141.902344 59.988281 147.546875 54.078125 151.878906 56.019531 C 156.652344 58.160156 156.90625 68.542969 151.335938 73.171875 " fill-opacity="1" fill-rule="nonzero"></path></g><path fill="#000000" d="M 119.132812 25.046875 C 116.890625 25.046875 117.144531 28.496094 119.375 28.496094 C 121.617188 28.496094 121.367188 25.046875 119.132812 25.046875 " fill-opacity="1" fill-rule="nonzero"></path><path fill="#ffffff" d="M 121.703125 42.421875 L 123.71875 39.261719 L 124.496094 43.042969 Z M 121.703125 42.421875 " fill-opacity="1" fill-rule="nonzero"></path><path fill="#ffffff" d="M 126.34375 43.355469 L 128.40625 39.644531 L 129.613281 43.714844 Z M 126.34375 43.355469 " fill-opacity="1" fill-rule="nonzero"></path><path fill="#ffffff" d="M 131.839844 43.832031 L 132.855469 40.269531 L 134.550781 43.8125 Z M 131.839844 43.832031 " fill-opacity="1" fill-rule="nonzero"></path><path fill="#000000" d="M 133.019531 44.058594 C 130.027344 44.058594 124.496094 43.730469 118.636719 41.730469 C 118.546875 41.703125 118.488281 41.621094 118.488281 41.527344 L 118.488281 38.550781 C 118.488281 38.429688 118.585938 38.332031 118.707031 38.332031 C 118.828125 38.332031 118.925781 38.429688 118.925781 38.550781 L 118.925781 41.371094 C 127.445312 44.242188 135.21875 43.558594 135.296875 43.550781 C 135.417969 43.539062 135.519531 43.625 135.53125 43.746094 C 135.542969 43.863281 135.457031 43.96875 135.335938 43.980469 C 135.308594 43.984375 134.457031 44.058594 133.019531 44.058594 " fill-opacity="1" fill-rule="nonzero"></path><path fill="#b7ca3b" d="M 149.378906 58.597656 C 149.355469 58.515625 149.320312 58.429688 149.269531 58.359375 C 149.222656 58.289062 149.167969 58.21875 149.105469 58.167969 C 148.960938 58.046875 148.796875 57.945312 148.609375 57.914062 C 148.515625 57.898438 148.417969 57.886719 148.324219 57.898438 C 148.261719 57.90625 148.195312 57.910156 148.132812 57.925781 C 148.070312 57.945312 148.011719 57.972656 147.949219 58.003906 C 147.855469 58.046875 147.777344 58.164062 147.75 58.261719 C 147.726562 58.351562 147.769531 58.4375 147.734375 58.566406 C 147.738281 58.632812 147.757812 58.667969 147.75 58.722656 C 147.75 58.753906 147.746094 58.78125 147.75 58.808594 C 147.753906 58.867188 147.761719 58.933594 147.78125 58.992188 C 147.820312 59.117188 147.886719 59.238281 147.984375 59.324219 C 148.160156 59.480469 148.394531 59.546875 148.628906 59.542969 C 148.84375 59.539062 149.050781 59.472656 149.214844 59.328125 C 149.222656 59.316406 149.230469 59.308594 149.242188 59.296875 C 149.269531 59.261719 149.300781 59.226562 149.324219 59.1875 C 149.339844 59.160156 149.351562 59.128906 149.363281 59.105469 C 149.378906 59.070312 149.390625 59.039062 149.398438 59.003906 C 149.410156 58.941406 149.421875 58.867188 149.417969 58.804688 C 149.410156 58.734375 149.402344 58.664062 149.378906 58.597656 " fill-opacity="1" fill-rule="nonzero"></path><path fill="#b7ca3b" d="M 153.015625 59.722656 C 152.988281 59.578125 152.914062 59.449219 152.816406 59.339844 C 152.648438 59.144531 152.359375 59.066406 152.113281 59.140625 C 152.105469 59.140625 152.097656 59.136719 152.089844 59.136719 C 151.847656 59.140625 151.597656 59.214844 151.421875 59.386719 C 151.023438 59.769531 151.273438 60.4375 151.730469 60.652344 C 151.871094 60.71875 151.996094 60.75 152.152344 60.761719 C 152.265625 60.773438 152.382812 60.757812 152.492188 60.730469 C 152.632812 60.703125 152.777344 60.644531 152.878906 60.546875 C 153.003906 60.421875 153.046875 60.253906 153.046875 60.085938 C 153.050781 59.964844 153.039062 59.84375 153.015625 59.722656 " fill-opacity="1" fill-rule="nonzero"></path><path fill="#b7ca3b" d="M 154.074219 65.324219 C 154.035156 65.0625 153.882812 64.824219 153.652344 64.683594 C 153.429688 64.546875 153.160156 64.53125 152.90625 64.570312 C 152.894531 64.570312 152.878906 64.566406 152.867188 64.566406 C 152.785156 64.566406 152.703125 64.578125 152.625 64.59375 C 152.546875 64.609375 152.472656 64.640625 152.402344 64.679688 C 152.371094 64.695312 152.34375 64.71875 152.3125 64.742188 C 152.285156 64.761719 152.253906 64.785156 152.226562 64.8125 C 152.097656 64.949219 152.023438 65.117188 152.015625 65.308594 C 152.011719 65.378906 152.027344 65.445312 152.050781 65.511719 C 151.9375 65.6875 151.902344 65.917969 151.957031 66.121094 C 152 66.292969 152.109375 66.417969 152.246094 66.519531 C 152.371094 66.605469 152.53125 66.636719 152.675781 66.644531 C 152.773438 66.648438 152.871094 66.628906 152.964844 66.617188 C 153.085938 66.605469 153.207031 66.589844 153.328125 66.574219 C 153.46875 66.554688 153.59375 66.527344 153.71875 66.457031 C 153.882812 66.367188 153.988281 66.21875 154.054688 66.046875 C 154.132812 65.824219 154.109375 65.554688 154.074219 65.324219 " fill-opacity="1" fill-rule="nonzero"></path><path fill="#b7ca3b" d="M 150.503906 62.789062 C 150.457031 62.65625 150.386719 62.519531 150.273438 62.425781 C 150.152344 62.328125 150.015625 62.265625 149.859375 62.234375 C 149.597656 62.175781 149.324219 62.160156 149.078125 62.289062 C 149.066406 62.292969 149.058594 62.300781 149.050781 62.304688 C 149.003906 62.316406 148.960938 62.332031 148.914062 62.359375 C 148.824219 62.410156 148.75 62.484375 148.691406 62.570312 C 148.617188 62.683594 148.585938 62.832031 148.589844 62.96875 C 148.589844 63.011719 148.59375 63.058594 148.601562 63.105469 C 148.585938 63.167969 148.585938 63.238281 148.605469 63.296875 C 148.621094 63.34375 148.644531 63.386719 148.675781 63.425781 C 148.703125 63.507812 148.734375 63.589844 148.773438 63.667969 C 148.902344 63.914062 149.113281 64.085938 149.371094 64.179688 C 149.5 64.226562 149.636719 64.234375 149.769531 64.21875 C 149.914062 64.199219 150.042969 64.144531 150.160156 64.054688 C 150.347656 63.914062 150.472656 63.699219 150.519531 63.46875 C 150.5625 63.253906 150.578125 63.003906 150.503906 62.789062 " fill-opacity="1" fill-rule="nonzero"></path><path fill="#b7ca3b" d="M 151.84375 68.558594 C 151.8125 68.421875 151.730469 68.277344 151.625 68.183594 C 151.480469 68.058594 151.320312 68.011719 151.132812 67.988281 C 151 67.972656 150.859375 67.980469 150.722656 68.011719 C 150.652344 68.011719 150.582031 68.015625 150.503906 68.03125 C 150.261719 68.070312 150.019531 68.230469 149.898438 68.445312 C 149.765625 68.675781 149.742188 69.003906 149.8125 69.257812 C 149.886719 69.539062 150.132812 69.742188 150.417969 69.785156 C 150.910156 69.863281 151.46875 69.753906 151.734375 69.296875 C 151.863281 69.070312 151.898438 68.808594 151.84375 68.558594 " fill-opacity="1" fill-rule="nonzero"></path><path fill="#b7ca3b" d="M 149.855469 70.972656 C 149.714844 70.765625 149.5 70.621094 149.257812 70.558594 C 149.019531 70.5 148.726562 70.492188 148.492188 70.578125 C 148.359375 70.628906 148.335938 70.679688 148.140625 70.742188 C 147.988281 70.800781 147.890625 70.8125 147.792969 70.910156 C 147.453125 71.261719 147.398438 71.84375 147.691406 72.238281 C 147.992188 72.640625 148.519531 72.820312 149.007812 72.679688 C 149.453125 72.550781 149.851562 72.183594 149.960938 71.726562 C 150.023438 71.472656 150.003906 71.191406 149.855469 70.972656 " fill-opacity="1" fill-rule="nonzero"></path><path fill="#b7ca3b" d="M 148.292969 66.671875 C 148.261719 66.621094 148.226562 66.574219 148.183594 66.53125 C 148.136719 66.492188 148.085938 66.453125 148.027344 66.425781 C 147.976562 66.402344 147.921875 66.375 147.863281 66.363281 C 147.800781 66.347656 147.734375 66.34375 147.667969 66.335938 C 147.636719 66.332031 147.605469 66.328125 147.578125 66.332031 C 147.511719 66.335938 147.441406 66.34375 147.378906 66.363281 C 147.367188 66.367188 147.355469 66.375 147.34375 66.378906 C 147.3125 66.378906 147.28125 66.378906 147.253906 66.378906 C 147.089844 66.386719 146.9375 66.425781 146.816406 66.542969 C 146.699219 66.660156 146.652344 66.808594 146.640625 66.96875 C 146.636719 67.027344 146.648438 67.085938 146.65625 67.144531 C 146.664062 67.171875 146.671875 67.199219 146.679688 67.226562 C 146.730469 67.347656 146.78125 67.4375 146.871094 67.535156 C 146.898438 67.566406 146.933594 67.59375 146.96875 67.621094 C 147.003906 67.648438 147.039062 67.675781 147.078125 67.695312 C 147.160156 67.742188 147.253906 67.777344 147.347656 67.800781 C 147.441406 67.820312 147.539062 67.832031 147.636719 67.839844 C 147.765625 67.847656 147.894531 67.832031 148.015625 67.769531 C 148.0625 67.746094 148.113281 67.707031 148.148438 67.667969 C 148.191406 67.625 148.230469 67.578125 148.253906 67.523438 C 148.292969 67.445312 148.324219 67.363281 148.34375 67.28125 C 148.394531 67.074219 148.398438 66.859375 148.292969 66.671875 " fill-opacity="1" fill-rule="nonzero"></path><path fill="#b7ca3b" d="M 113.203125 9.550781 C 113.179688 9.472656 113.148438 9.394531 113.101562 9.328125 C 113.054688 9.265625 113.007812 9.199219 112.945312 9.148438 C 112.8125 9.039062 112.660156 8.945312 112.484375 8.917969 C 112.394531 8.902344 112.308594 8.886719 112.21875 8.898438 C 112.160156 8.90625 112.097656 8.910156 112.042969 8.925781 C 111.984375 8.945312 111.925781 8.96875 111.871094 8.996094 C 111.785156 9.039062 111.710938 9.148438 111.683594 9.238281 C 111.660156 9.324219 111.703125 9.402344 111.671875 9.523438 C 111.675781 9.585938 111.691406 9.617188 111.683594 9.671875 C 111.683594 9.695312 111.683594 9.722656 111.683594 9.746094 C 111.691406 9.804688 111.695312 9.867188 111.710938 9.921875 C 111.75 10.035156 111.8125 10.148438 111.90625 10.230469 C 112.066406 10.375 112.285156 10.4375 112.503906 10.433594 C 112.703125 10.429688 112.898438 10.367188 113.046875 10.230469 C 113.058594 10.222656 113.066406 10.214844 113.074219 10.203125 C 113.101562 10.171875 113.132812 10.136719 113.152344 10.097656 C 113.167969 10.078125 113.175781 10.046875 113.1875 10.023438 C 113.199219 9.992188 113.214844 9.964844 113.222656 9.929688 C 113.234375 9.871094 113.242188 9.804688 113.238281 9.746094 C 113.230469 9.679688 113.226562 9.613281 113.203125 9.550781 " fill-opacity="1" fill-rule="nonzero"></path><path fill="#b7ca3b" d="M 145.960938 9.488281 C 145.847656 9.539062 145.726562 9.5625 145.601562 9.5625 C 145.386719 9.566406 145.171875 9.507812 145.003906 9.363281 C 144.914062 9.28125 144.851562 9.167969 144.8125 9.054688 C 144.796875 8.996094 144.792969 8.9375 144.785156 8.878906 C 144.78125 8.851562 144.78125 8.828125 144.785156 8.800781 C 144.792969 8.75 144.777344 8.71875 144.773438 8.65625 C 144.804688 8.53125 144.761719 8.457031 144.785156 8.371094 C 144.8125 8.28125 144.886719 8.167969 144.972656 8.128906 C 145.027344 8.101562 145.085938 8.074219 145.144531 8.058594 C 145.199219 8.042969 145.261719 8.039062 145.320312 8.03125 C 145.410156 8.019531 145.496094 8.03125 145.585938 8.046875 C 145.6875 8.0625 145.777344 8.101562 145.867188 8.152344 C 145.871094 8.191406 145.875 8.234375 145.878906 8.273438 C 145.925781 8.675781 145.949219 9.078125 145.960938 9.488281 " fill-opacity="1" fill-rule="nonzero"></path><path fill="#b7ca3b" d="M 139.75 16.652344 C 139.726562 16.574219 139.695312 16.496094 139.648438 16.429688 C 139.601562 16.367188 139.554688 16.300781 139.492188 16.25 C 139.359375 16.140625 139.207031 16.046875 139.03125 16.019531 C 138.945312 16.003906 138.855469 15.988281 138.765625 16 C 138.707031 16.007812 138.644531 16.011719 138.589844 16.027344 C 138.53125 16.046875 138.472656 16.070312 138.417969 16.097656 C 138.332031 16.140625 138.257812 16.25 138.230469 16.339844 C 138.207031 16.425781 138.25 16.503906 138.21875 16.625 C 138.222656 16.6875 138.238281 16.71875 138.234375 16.773438 C 138.230469 16.796875 138.230469 16.824219 138.230469 16.847656 C 138.238281 16.90625 138.242188 16.96875 138.261719 17.023438 C 138.296875 17.136719 138.359375 17.25 138.453125 17.332031 C 138.617188 17.476562 138.832031 17.539062 139.050781 17.535156 C 139.253906 17.53125 139.445312 17.46875 139.59375 17.332031 C 139.605469 17.324219 139.613281 17.316406 139.621094 17.304688 C 139.648438 17.273438 139.679688 17.238281 139.699219 17.199219 C 139.714844 17.179688 139.722656 17.148438 139.734375 17.125 C 139.75 17.09375 139.761719 17.066406 139.769531 17.03125 C 139.78125 16.972656 139.789062 16.90625 139.785156 16.847656 C 139.777344 16.78125 139.773438 16.714844 139.75 16.652344 " fill-opacity="1" fill-rule="nonzero"></path><path fill="#b7ca3b" d="M 111.179688 7.015625 C 111.179688 7.269531 111.113281 7.515625 110.929688 7.699219 C 110.777344 7.847656 110.5625 7.933594 110.355469 7.976562 C 110.191406 8.015625 110.015625 8.039062 109.847656 8.023438 C 109.613281 8 109.429688 7.957031 109.21875 7.855469 C 108.777344 7.648438 108.464844 7.148438 108.464844 6.671875 C 108.9375 6.480469 109.421875 6.292969 109.910156 6.113281 C 110.183594 6.007812 110.460938 5.90625 110.738281 5.808594 C 110.777344 5.835938 110.808594 5.867188 110.839844 5.902344 C 110.984375 6.066406 111.09375 6.261719 111.136719 6.476562 C 111.167969 6.652344 111.183594 6.832031 111.179688 7.015625 " fill-opacity="1" fill-rule="nonzero"></path><path fill="#b7ca3b" d="M 143.953125 3.320312 C 143.804688 3.445312 143.613281 3.519531 143.425781 3.558594 C 143.265625 3.59375 143.089844 3.621094 142.917969 3.601562 C 142.6875 3.582031 142.5 3.535156 142.289062 3.4375 C 141.613281 3.121094 141.238281 2.121094 141.832031 1.554688 C 141.84375 1.539062 141.859375 1.527344 141.878906 1.511719 C 142.308594 1.765625 142.710938 2.0625 143.089844 2.398438 C 143.402344 2.683594 143.691406 2.992188 143.953125 3.320312 " fill-opacity="1" fill-rule="nonzero"></path><path fill="#b7ca3b" d="M 108.933594 12.457031 C 108.875 12.066406 108.648438 11.714844 108.308594 11.503906 C 107.972656 11.300781 107.574219 11.273438 107.195312 11.332031 C 107.175781 11.332031 107.15625 11.328125 107.136719 11.328125 C 107.015625 11.328125 106.894531 11.34375 106.777344 11.367188 C 106.660156 11.390625 106.546875 11.441406 106.445312 11.496094 C 106.398438 11.523438 106.355469 11.554688 106.3125 11.589844 C 106.269531 11.621094 106.222656 11.65625 106.1875 11.695312 C 105.992188 11.898438 105.882812 12.148438 105.871094 12.429688 C 105.867188 12.539062 105.890625 12.636719 105.921875 12.734375 C 105.753906 13 105.703125 13.34375 105.78125 13.644531 C 105.847656 13.894531 106.007812 14.085938 106.214844 14.234375 C 106.398438 14.363281 106.636719 14.410156 106.855469 14.417969 C 107 14.425781 107.140625 14.402344 107.285156 14.382812 C 107.464844 14.359375 107.640625 14.339844 107.820312 14.316406 C 108.027344 14.289062 108.21875 14.25 108.40625 14.144531 C 108.648438 14.007812 108.808594 13.785156 108.902344 13.53125 C 109.023438 13.203125 108.984375 12.796875 108.933594 12.457031 " fill-opacity="1" fill-rule="nonzero"></path><path fill="#b7ca3b" d="M 145.671875 12.601562 C 145.660156 12.652344 145.652344 12.699219 145.640625 12.746094 C 145.53125 13.277344 145.390625 13.796875 145.222656 14.304688 C 145.132812 14.582031 145.035156 14.855469 144.929688 15.125 C 144.878906 15.25 144.828125 15.371094 144.773438 15.496094 C 144.75 15.5 144.71875 15.503906 144.695312 15.507812 C 144.550781 15.523438 144.410156 15.546875 144.265625 15.542969 C 144.046875 15.535156 143.804688 15.488281 143.625 15.359375 C 143.417969 15.210938 143.257812 15.019531 143.191406 14.765625 C 143.113281 14.464844 143.160156 14.121094 143.332031 13.855469 C 143.300781 13.757812 143.273438 13.664062 143.28125 13.554688 C 143.289062 13.273438 143.402344 13.023438 143.597656 12.820312 C 143.632812 12.777344 143.679688 12.746094 143.722656 12.714844 C 143.765625 12.679688 143.804688 12.644531 143.855469 12.621094 C 143.957031 12.5625 144.070312 12.515625 144.1875 12.492188 C 144.300781 12.46875 144.425781 12.453125 144.546875 12.453125 C 144.566406 12.453125 144.585938 12.457031 144.605469 12.457031 C 144.964844 12.398438 145.34375 12.421875 145.671875 12.601562 " fill-opacity="1" fill-rule="nonzero"></path><g clip-path="url(#7fef2b248a)"><path fill="#b7ca3b" d="M 138.21875 0.273438 C 138.214844 0.445312 138.195312 0.613281 138.136719 0.769531 C 138.042969 1.023438 137.886719 1.246094 137.644531 1.378906 C 137.457031 1.484375 137.265625 1.523438 137.058594 1.550781 C 136.878906 1.574219 136.699219 1.597656 136.519531 1.617188 C 136.378906 1.636719 136.234375 1.664062 136.089844 1.65625 C 135.871094 1.648438 135.632812 1.601562 135.453125 1.472656 C 135.246094 1.324219 135.085938 1.132812 135.019531 0.878906 C 134.953125 0.628906 134.976562 0.351562 135.082031 0.109375 C 136.183594 0.078125 137.234375 0.125 138.21875 0.273438 " fill-opacity="1" fill-rule="nonzero"></path></g><path fill="#b7ca3b" d="M 105.226562 9.285156 C 105.15625 9.625 104.972656 9.941406 104.695312 10.15625 C 104.523438 10.289062 104.328125 10.367188 104.113281 10.394531 C 103.914062 10.421875 103.710938 10.410156 103.523438 10.34375 C 103.183594 10.214844 102.894531 10 102.703125 9.695312 C 102.933594 9.535156 103.171875 9.371094 103.417969 9.210938 C 103.675781 9.046875 103.941406 8.882812 104.210938 8.726562 C 104.523438 8.542969 104.84375 8.363281 105.175781 8.1875 C 105.1875 8.21875 105.195312 8.246094 105.207031 8.273438 C 105.316406 8.589844 105.292969 8.960938 105.226562 9.285156 " fill-opacity="1" fill-rule="nonzero"></path><path fill="#b7ca3b" d="M 142.597656 6.175781 C 142.527344 5.976562 142.421875 5.773438 142.253906 5.636719 C 142.070312 5.488281 141.871094 5.394531 141.640625 5.347656 C 141.246094 5.261719 140.84375 5.242188 140.476562 5.425781 C 140.460938 5.433594 140.449219 5.445312 140.433594 5.453125 C 140.367188 5.472656 140.300781 5.496094 140.234375 5.53125 C 140.097656 5.609375 139.988281 5.71875 139.902344 5.847656 C 139.789062 6.015625 139.746094 6.242188 139.746094 6.441406 C 139.746094 6.507812 139.753906 6.574219 139.765625 6.640625 C 139.746094 6.738281 139.746094 6.839844 139.773438 6.925781 C 139.796875 6.996094 139.832031 7.0625 139.875 7.121094 C 139.917969 7.246094 139.964844 7.367188 140.023438 7.480469 C 140.210938 7.847656 140.53125 8.105469 140.914062 8.246094 C 141.101562 8.316406 141.308594 8.324219 141.503906 8.296875 C 141.71875 8.269531 141.914062 8.191406 142.085938 8.058594 C 142.363281 7.84375 142.546875 7.527344 142.617188 7.1875 C 142.683594 6.863281 142.703125 6.492188 142.597656 6.175781 " fill-opacity="1" fill-rule="nonzero"></path><path fill="#b7ca3b" d="M 108.03125 18.394531 C 107.984375 18.1875 107.863281 17.972656 107.703125 17.835938 C 107.488281 17.652344 107.25 17.578125 106.972656 17.546875 C 106.777344 17.523438 106.566406 17.535156 106.363281 17.578125 C 106.257812 17.578125 106.152344 17.585938 106.039062 17.605469 C 105.675781 17.667969 105.320312 17.902344 105.136719 18.222656 C 104.9375 18.566406 104.90625 19.050781 105.011719 19.433594 C 105.125 19.847656 105.488281 20.15625 105.914062 20.21875 C 106.640625 20.332031 107.472656 20.175781 107.867188 19.488281 C 108.058594 19.15625 108.113281 18.765625 108.03125 18.394531 " fill-opacity="1" fill-rule="nonzero"></path><path fill="#b7ca3b" d="M 102.554688 19.050781 C 102.433594 19.550781 102.078125 19.976562 101.640625 20.246094 C 100.757812 19.363281 100.027344 18.539062 99.542969 17.695312 C 99.628906 17.660156 99.722656 17.632812 99.84375 17.589844 C 100.132812 17.492188 100.171875 17.417969 100.363281 17.347656 C 100.714844 17.214844 101.148438 17.222656 101.507812 17.316406 C 101.867188 17.410156 102.1875 17.621094 102.394531 17.929688 C 102.613281 18.257812 102.644531 18.675781 102.554688 19.050781 " fill-opacity="1" fill-rule="nonzero"></path><path fill="#b7ca3b" d="M 116.492188 6.441406 C 116.414062 6.328125 116.296875 6.25 116.164062 6.214844 C 116.03125 6.179688 115.871094 6.175781 115.742188 6.226562 C 115.671875 6.253906 115.65625 6.28125 115.550781 6.316406 C 115.464844 6.347656 115.410156 6.351562 115.359375 6.410156 C 115.171875 6.601562 115.140625 6.921875 115.304688 7.136719 C 115.46875 7.359375 115.757812 7.457031 116.027344 7.378906 C 116.269531 7.308594 116.488281 7.105469 116.550781 6.855469 C 116.585938 6.71875 116.574219 6.5625 116.492188 6.441406 " fill-opacity="1" fill-rule="nonzero"></path><path fill="#b7ca3b" d="M 138.925781 9.816406 C 138.847656 9.703125 138.730469 9.625 138.597656 9.589844 C 138.464844 9.554688 138.304688 9.554688 138.175781 9.601562 C 138.105469 9.628906 138.089844 9.65625 137.984375 9.691406 C 137.898438 9.722656 137.847656 9.726562 137.792969 9.785156 C 137.605469 9.976562 137.574219 10.296875 137.738281 10.511719 C 137.902344 10.734375 138.191406 10.832031 138.460938 10.753906 C 138.703125 10.683594 138.925781 10.480469 138.984375 10.230469 C 139.019531 10.09375 139.007812 9.9375 138.925781 9.816406 " fill-opacity="1" fill-rule="nonzero"></path><path fill="#b7ca3b" d="M 107.972656 23.363281 C 107.894531 23.25 107.777344 23.171875 107.644531 23.136719 C 107.511719 23.101562 107.351562 23.097656 107.222656 23.148438 C 107.152344 23.171875 107.136719 23.199219 107.03125 23.238281 C 106.945312 23.269531 106.890625 23.273438 106.835938 23.328125 C 106.652344 23.519531 106.621094 23.839844 106.78125 24.058594 C 106.949219 24.28125 107.238281 24.378906 107.507812 24.300781 C 107.75 24.230469 107.96875 24.027344 108.03125 23.777344 C 108.066406 23.636719 108.054688 23.484375 107.972656 23.363281 " fill-opacity="1" fill-rule="nonzero"></path><path fill="#b7ca3b" d="M 104.285156 22.121094 C 104.246094 22.277344 104.140625 22.421875 104.007812 22.519531 C 103.699219 22.21875 103.398438 21.9375 103.105469 21.660156 C 103.15625 21.617188 103.203125 21.609375 103.28125 21.578125 C 103.390625 21.542969 103.40625 21.515625 103.472656 21.492188 C 103.605469 21.441406 103.765625 21.445312 103.894531 21.480469 C 104.03125 21.511719 104.148438 21.589844 104.226562 21.703125 C 104.304688 21.828125 104.316406 21.980469 104.285156 22.121094 " fill-opacity="1" fill-rule="nonzero"></path><path fill="#b7ca3b" d="M 102.957031 13.804688 C 102.917969 13.730469 102.859375 13.65625 102.796875 13.597656 C 102.730469 13.535156 102.652344 13.476562 102.566406 13.4375 C 102.488281 13.402344 102.40625 13.363281 102.320312 13.34375 C 102.226562 13.324219 102.128906 13.3125 102.03125 13.300781 C 101.988281 13.296875 101.941406 13.296875 101.894531 13.296875 C 101.796875 13.304688 101.695312 13.3125 101.601562 13.34375 C 101.582031 13.351562 101.566406 13.363281 101.546875 13.371094 C 101.503906 13.371094 101.457031 13.367188 101.414062 13.371094 C 101.171875 13.378906 100.941406 13.4375 100.765625 13.613281 C 100.589844 13.785156 100.519531 14.007812 100.5 14.246094 C 100.496094 14.332031 100.515625 14.421875 100.527344 14.507812 C 100.535156 14.546875 100.546875 14.589844 100.5625 14.628906 C 100.632812 14.808594 100.710938 14.945312 100.84375 15.089844 C 100.886719 15.136719 100.941406 15.175781 100.992188 15.214844 C 101.042969 15.253906 101.097656 15.296875 101.15625 15.328125 C 101.277344 15.394531 101.414062 15.449219 101.550781 15.480469 C 101.691406 15.511719 101.839844 15.53125 101.984375 15.539062 C 102.179688 15.554688 102.371094 15.527344 102.546875 15.4375 C 102.621094 15.398438 102.691406 15.34375 102.75 15.285156 C 102.808594 15.222656 102.867188 15.148438 102.902344 15.070312 C 102.957031 14.953125 103.007812 14.835938 103.039062 14.707031 C 103.113281 14.402344 103.117188 14.082031 102.957031 13.804688 " fill-opacity="1" fill-rule="nonzero"></path><path fill="#b7ca3b" d="M 137.007812 4.667969 C 136.964844 4.59375 136.910156 4.519531 136.847656 4.460938 C 136.777344 4.398438 136.699219 4.339844 136.617188 4.300781 C 136.539062 4.265625 136.457031 4.230469 136.371094 4.210938 C 136.277344 4.1875 136.175781 4.175781 136.082031 4.167969 C 136.035156 4.160156 135.988281 4.160156 135.945312 4.160156 C 135.847656 4.167969 135.742188 4.179688 135.652344 4.210938 C 135.632812 4.214844 135.613281 4.226562 135.597656 4.234375 C 135.550781 4.234375 135.507812 4.230469 135.464844 4.234375 C 135.222656 4.246094 134.992188 4.300781 134.8125 4.476562 C 134.640625 4.648438 134.566406 4.871094 134.550781 5.109375 C 134.546875 5.195312 134.566406 5.285156 134.578125 5.371094 C 134.585938 5.414062 134.597656 5.453125 134.613281 5.492188 C 134.683594 5.671875 134.761719 5.808594 134.894531 5.953125 C 134.9375 6 134.988281 6.039062 135.042969 6.078125 C 135.09375 6.121094 135.144531 6.160156 135.203125 6.191406 C 135.328125 6.257812 135.464844 6.3125 135.601562 6.34375 C 135.742188 6.378906 135.890625 6.394531 136.03125 6.40625 C 136.230469 6.417969 136.417969 6.390625 136.597656 6.300781 C 136.667969 6.265625 136.742188 6.207031 136.796875 6.148438 C 136.855469 6.085938 136.914062 6.011719 136.953125 5.933594 C 137.007812 5.816406 137.054688 5.699219 137.085938 5.574219 C 137.164062 5.269531 137.167969 4.949219 137.007812 4.667969 " fill-opacity="1" fill-rule="nonzero"></path><g clip-path="url(#b9f3467e59)"><path fill="#188693" d="M 215.089844 14.496094 C 215.054688 14.625 215.015625 14.75 214.972656 14.875 C 214.59375 15.992188 213.964844 17.082031 213.078125 18.101562 L 202.566406 30.175781 C 198.542969 34.796875 199.175781 40.835938 204.113281 44.949219 L 211.476562 51.070312 C 213.480469 53.636719 214.429688 56.4375 214.429688 59.203125 C 214.429688 64.839844 210.480469 70.316406 203.40625 73.335938 C 199.472656 75.015625 194.445312 74.019531 192.171875 71.109375 L 185.804688 53.773438 C 185.328125 52.46875 182.890625 52.34375 182.175781 53.585938 L 173.65625 68.40625 L 173.199219 69.199219 L 172.195312 70.945312 L 171.671875 71.855469 L 170.847656 73.289062 C 169.953125 74.433594 168.332031 75.074219 166.667969 75.074219 C 165.910156 75.074219 165.136719 74.9375 164.421875 74.65625 C 164.367188 74.636719 164.320312 74.617188 164.265625 74.59375 C 163.34375 74.203125 162.476562 73.761719 161.667969 73.285156 C 160.621094 72.667969 159.667969 71.984375 158.820312 71.25 C 158.308594 70.808594 157.835938 70.34375 157.398438 69.867188 C 156.683594 69.085938 156.074219 68.261719 155.570312 67.40625 C 155.246094 66.859375 154.964844 66.292969 154.730469 65.722656 C 154.507812 65.175781 154.324219 64.625 154.179688 64.066406 C 153.933594 63.089844 153.8125 62.09375 153.820312 61.09375 C 153.835938 59.335938 154.257812 57.570312 155.113281 55.867188 C 155.515625 55.054688 156.019531 54.269531 156.621094 53.496094 L 157.882812 52.519531 L 160.792969 50.253906 L 161.824219 49.453125 L 167.402344 45.117188 C 171 42.320312 171.792969 38.226562 169.617188 34.855469 C 169.539062 34.730469 169.453125 34.605469 169.363281 34.480469 C 169.183594 34.230469 168.984375 33.984375 168.765625 33.742188 C 168.664062 33.628906 168.5625 33.515625 168.449219 33.40625 C 168.417969 33.371094 168.382812 33.335938 168.351562 33.304688 L 167.761719 32.71875 L 167.429688 32.390625 L 166.738281 31.707031 L 166.40625 31.378906 L 162.789062 27.800781 C 162.789062 27.800781 162.554688 27.570312 162.554688 27.570312 L 162.195312 27.214844 L 161.9375 26.957031 L 161.058594 26.085938 L 160.984375 26.015625 L 160.816406 25.847656 L 159.917969 24.960938 L 159.664062 24.710938 L 158.71875 23.773438 L 158.648438 23.699219 L 158.46875 23.527344 L 155.507812 20.59375 C 155.382812 20.472656 155.261719 20.347656 155.144531 20.222656 C 155.121094 20.199219 155.101562 20.175781 155.078125 20.152344 C 154.96875 20.035156 154.863281 19.917969 154.761719 19.800781 C 154.566406 19.574219 154.382812 19.347656 154.207031 19.113281 C 154.195312 19.097656 154.183594 19.085938 154.171875 19.070312 C 154.078125 18.945312 153.988281 18.820312 153.898438 18.695312 C 153.71875 18.4375 153.550781 18.175781 153.398438 17.910156 C 153.316406 17.773438 153.238281 17.640625 153.167969 17.503906 C 153.019531 17.222656 152.882812 16.941406 152.757812 16.660156 C 152.695312 16.515625 152.636719 16.367188 152.582031 16.222656 C 152.097656 14.957031 151.878906 13.660156 151.910156 12.367188 C 151.914062 12.25 151.917969 12.125 151.925781 12.007812 C 151.933594 11.847656 151.949219 11.683594 151.964844 11.527344 C 152.003906 11.191406 152.054688 10.863281 152.125 10.53125 C 152.160156 10.359375 152.203125 10.1875 152.25 10.019531 C 152.289062 9.867188 152.332031 9.71875 152.378906 9.566406 C 152.445312 9.351562 152.519531 9.136719 152.601562 8.925781 C 152.675781 8.726562 152.757812 8.53125 152.847656 8.339844 C 153.019531 7.957031 153.214844 7.578125 153.4375 7.207031 C 153.496094 7.109375 153.554688 7.011719 153.613281 6.917969 C 153.792969 6.632812 153.988281 6.351562 154.195312 6.078125 C 154.585938 5.558594 155.023438 5.058594 155.503906 4.578125 C 155.800781 4.289062 156.113281 4.003906 156.445312 3.726562 C 157.699219 2.675781 159.207031 1.753906 160.949219 1.011719 C 161.0625 0.964844 161.175781 0.917969 161.289062 0.871094 C 162.015625 0.589844 162.773438 0.390625 163.539062 0.257812 C 163.707031 0.230469 163.882812 0.203125 164.050781 0.183594 C 164.488281 0.128906 164.917969 0.101562 165.351562 0.0976562 C 165.472656 0.0898438 165.585938 0.0898438 165.703125 0.0898438 C 165.832031 0.0898438 165.960938 0.09375 166.089844 0.101562 C 166.558594 0.117188 167.023438 0.164062 167.480469 0.234375 C 167.589844 0.25 167.699219 0.269531 167.808594 0.289062 C 168.226562 0.363281 168.640625 0.460938 169.039062 0.582031 C 169.136719 0.609375 169.238281 0.636719 169.332031 0.671875 C 169.40625 0.695312 169.476562 0.71875 169.550781 0.746094 C 170.296875 1.003906 170.996094 1.335938 171.632812 1.734375 C 171.980469 1.957031 172.3125 2.195312 172.617188 2.457031 C 172.667969 2.5 172.722656 2.546875 172.773438 2.59375 C 172.835938 2.652344 172.902344 2.710938 172.964844 2.773438 C 173.242188 3.042969 173.5 3.328125 173.726562 3.636719 C 173.777344 3.703125 173.828125 3.769531 173.875 3.839844 C 173.890625 3.863281 173.910156 3.890625 173.925781 3.914062 L 174.660156 5.011719 L 174.804688 5.226562 L 175.53125 6.316406 L 175.683594 6.542969 L 176.007812 7.027344 L 176.824219 8.242188 L 177.144531 8.71875 L 177.792969 9.695312 L 178.128906 10.195312 L 178.847656 11.273438 L 179.203125 11.800781 L 179.882812 12.816406 L 180.183594 13.265625 L 182.238281 16.339844 C 182.625 16.917969 183.203125 17.34375 183.867188 17.617188 C 183.957031 17.652344 184.042969 17.6875 184.132812 17.714844 C 184.480469 17.835938 184.847656 17.914062 185.222656 17.953125 C 185.3125 17.964844 185.402344 17.972656 185.5 17.976562 C 185.878906 18 186.261719 17.984375 186.636719 17.929688 C 186.734375 17.914062 186.828125 17.898438 186.921875 17.878906 C 187.332031 17.792969 187.722656 17.664062 188.082031 17.484375 C 188.183594 17.4375 188.28125 17.382812 188.375 17.324219 C 188.855469 17.035156 189.261719 16.644531 189.53125 16.164062 L 191.769531 12.175781 C 191.769531 12.171875 192.390625 11.070312 192.390625 11.070312 L 196.863281 3.101562 C 198.070312 0.945312 201.566406 0.0703125 204.300781 1.238281 L 208.078125 2.847656 C 213.746094 5.265625 216.375 10.042969 215.089844 14.496094 " fill-opacity="1" fill-rule="nonzero"></path></g><path fill="#000000" d="M 195.539062 9.03125 C 193.292969 9.03125 193.546875 12.515625 195.78125 12.515625 C 198.027344 12.515625 197.773438 9.03125 195.539062 9.03125 " fill-opacity="1" fill-rule="nonzero"></path><path fill="#ffffff" d="M 202.316406 20 L 202.5625 16.226562 L 205.070312 19.207031 Z M 202.316406 20 " fill-opacity="1" fill-rule="nonzero"></path><path fill="#ffffff" d="M 206.84375 18.59375 L 206.871094 14.3125 L 209.894531 17.34375 Z M 206.84375 18.59375 " fill-opacity="1" fill-rule="nonzero"></path><path fill="#ffffff" d="M 211.90625 16.375 L 211.082031 12.726562 L 214.28125 15.054688 Z M 211.90625 16.375 " fill-opacity="1" fill-rule="nonzero"></path><path fill="#000000" d="M 213.054688 16.007812 C 210.421875 17.449219 205.402344 19.816406 199.285156 20.863281 C 199.195312 20.878906 199.101562 20.835938 199.058594 20.753906 L 197.621094 18.109375 C 197.5625 18.003906 197.601562 17.871094 197.707031 17.816406 C 197.816406 17.757812 197.945312 17.796875 198.003906 17.902344 L 199.367188 20.40625 C 208.238281 18.851562 214.742188 14.507812 214.808594 14.460938 C 214.910156 14.394531 215.042969 14.421875 215.109375 14.519531 C 215.175781 14.621094 215.152344 14.757812 215.050781 14.824219 C 215.03125 14.839844 214.316406 15.316406 213.054688 16.007812 " fill-opacity="1" fill-rule="nonzero"></path><path fill="#1f5167" d="M 157.066406 55.820312 C 156.816406 57.898438 155.714844 57.4375 155.351562 56.722656 C 155.234375 56.488281 155.15625 56.1875 155.113281 55.867188 C 155.515625 55.054688 156.019531 54.269531 156.621094 53.496094 L 157.882812 52.519531 C 158.457031 53.175781 157.308594 53.820312 157.066406 55.820312 " fill-opacity="1" fill-rule="nonzero"></path><path fill="#1f5167" d="M 154.582031 64.417969 C 154.429688 64.296875 154.300781 64.179688 154.179688 64.066406 C 153.933594 63.089844 153.8125 62.09375 153.820312 61.09375 C 153.9375 60.59375 154.207031 59.675781 154.613281 59.636719 C 155.167969 59.585938 154.945312 60.769531 155.132812 62.320312 C 155.324219 63.875 155.859375 65.472656 154.582031 64.417969 " fill-opacity="1" fill-rule="nonzero"></path><path fill="#1f5167" d="M 158.820312 71.25 C 158.308594 70.808594 157.835938 70.34375 157.398438 69.867188 C 157.171875 68.898438 157.132812 67.835938 157.34375 67.625 C 158.019531 66.957031 159.386719 70.269531 158.820312 71.25 " fill-opacity="1" fill-rule="nonzero"></path><path fill="#1f5167" d="M 162.066406 52.984375 C 163.105469 52.886719 161.753906 57.058594 160.605469 56.753906 C 159.453125 56.453125 161.46875 53.042969 162.066406 52.984375 " fill-opacity="1" fill-rule="nonzero"></path><path fill="#1f5167" d="M 158.011719 62.542969 C 158.816406 61.871094 160.042969 66.082031 158.921875 66.480469 C 157.804688 66.882812 157.550781 62.925781 158.011719 62.542969 " fill-opacity="1" fill-rule="nonzero"></path><path fill="#1f5167" d="M 160.671875 65.363281 C 161.480469 65.753906 161.777344 64.917969 161.894531 65.519531 C 162.011719 66.121094 161.59375 67.171875 160.972656 66.894531 C 160.351562 66.617188 160.171875 65.117188 160.671875 65.363281 " fill-opacity="1" fill-rule="nonzero"></path><path fill="#1f5167" d="M 173.65625 68.40625 L 173.199219 69.199219 C 172.6875 69.292969 172.585938 69.792969 172.382812 69.335938 C 172.132812 68.777344 172.304688 67.660156 172.972656 67.789062 C 173.246094 67.84375 173.496094 68.113281 173.65625 68.40625 " fill-opacity="1" fill-rule="nonzero"></path><path fill="#1f5167" d="M 159.730469 61.582031 C 159.316406 59.925781 159.75 59.058594 160.519531 59.117188 C 161.285156 59.171875 160.402344 60.679688 160.722656 61.269531 C 161.039062 61.859375 161.042969 62.789062 160.519531 62.796875 C 159.996094 62.808594 159.730469 61.582031 159.730469 61.582031 " fill-opacity="1" fill-rule="nonzero"></path><g clip-path="url(#86136f2247)"><path fill="#1f5167" d="M 164.421875 74.65625 C 164.367188 74.636719 164.320312 74.617188 164.265625 74.59375 C 163.34375 74.203125 162.476562 73.761719 161.667969 73.285156 C 161.675781 73.277344 161.679688 73.269531 161.6875 73.261719 C 162.042969 72.875 163.109375 73.527344 163.109375 73.527344 C 163.769531 73.902344 164.199219 74.292969 164.421875 74.65625 " fill-opacity="1" fill-rule="nonzero"></path></g><path fill="#1f5167" d="M 161.332031 50.574219 C 161.109375 50.578125 160.90625 50.441406 160.792969 50.253906 L 161.824219 49.453125 C 162.097656 49.753906 161.765625 50.5625 161.332031 50.574219 " fill-opacity="1" fill-rule="nonzero"></path><path fill="#1f5167" d="M 156.484375 58.386719 C 157.328125 57.765625 157.480469 59.273438 156.941406 59.492188 C 156.40625 59.710938 155.636719 59.007812 156.484375 58.386719 " fill-opacity="1" fill-rule="nonzero"></path><path fill="#1f5167" d="M 161.582031 70.171875 C 162.429688 69.550781 162.578125 71.054688 162.042969 71.273438 C 161.503906 71.492188 160.738281 70.789062 161.582031 70.171875 " fill-opacity="1" fill-rule="nonzero"></path><g clip-path="url(#b97d2a033b)"><path fill="#1f5167" d="M 166.828125 72.996094 C 167.671875 72.375 167.820312 73.882812 167.285156 74.101562 C 166.75 74.320312 165.980469 73.617188 166.828125 72.996094 " fill-opacity="1" fill-rule="nonzero"></path></g><path fill="#1f5167" d="M 166.605469 67.925781 C 166.769531 68.761719 166.398438 69.539062 165.78125 69.660156 C 165.164062 69.78125 164.53125 69.199219 164.371094 68.363281 C 164.207031 67.527344 164.574219 66.753906 165.191406 66.632812 C 165.808594 66.511719 166.441406 67.089844 166.605469 67.925781 " fill-opacity="1" fill-rule="nonzero"></path><path fill="#1f5167" d="M 164.769531 62.476562 C 164.875 63.019531 165.5 63.351562 164.957031 63.457031 C 164.417969 63.5625 163.894531 63.210938 163.789062 62.667969 C 163.683594 62.125 164.035156 61.597656 164.578125 61.492188 C 165.117188 61.386719 164.660156 61.933594 164.769531 62.476562 " fill-opacity="1" fill-rule="nonzero"></path><path fill="#1f5167" d="M 155.890625 67.308594 C 155.789062 67.363281 155.679688 67.394531 155.570312 67.40625 C 155.246094 66.859375 154.964844 66.292969 154.730469 65.722656 C 154.804688 65.636719 154.902344 65.5625 155.011719 65.511719 C 155.511719 65.269531 155.210938 65.914062 155.453125 66.410156 C 155.695312 66.90625 156.386719 67.066406 155.890625 67.308594 " fill-opacity="1" fill-rule="nonzero"></path><path fill="#1f5167" d="M 172.195312 70.945312 L 171.671875 71.855469 C 171.160156 72.171875 170.496094 72.1875 169.964844 71.835938 C 169.238281 71.355469 169.035156 70.375 169.511719 69.644531 C 169.992188 68.910156 170.101562 70.03125 170.832031 70.511719 C 171.324219 70.835938 171.972656 70.789062 172.195312 70.945312 " fill-opacity="1" fill-rule="nonzero"></path><g clip-path="url(#75f44ca25d)"><path fill="#1f5167" d="M 169.550781 0.746094 C 168.984375 0.816406 168.316406 0.957031 167.554688 1.292969 C 165.195312 2.335938 164.890625 0.988281 165.351562 0.0976562 C 165.472656 0.0898438 165.585938 0.0898438 165.703125 0.0898438 C 165.832031 0.0898438 165.960938 0.09375 166.089844 0.101562 C 166.558594 0.117188 167.023438 0.164062 167.480469 0.234375 C 167.589844 0.25 167.699219 0.269531 167.808594 0.289062 C 168.226562 0.363281 168.640625 0.460938 169.039062 0.582031 C 169.136719 0.609375 169.238281 0.636719 169.332031 0.671875 C 169.40625 0.695312 169.476562 0.71875 169.550781 0.746094 " fill-opacity="1" fill-rule="nonzero"></path></g><g clip-path="url(#f9147ab2e1)"><path fill="#1f5167" d="M 159.054688 3.429688 C 157.457031 4.667969 156.035156 6.324219 156.363281 4.195312 C 156.386719 4.03125 156.414062 3.875 156.445312 3.726562 C 157.699219 2.675781 159.207031 1.753906 160.949219 1.011719 C 161.0625 0.964844 161.175781 0.917969 161.289062 0.871094 C 161.46875 0.898438 161.609375 0.960938 161.691406 1.074219 C 162.117188 1.664062 160.65625 2.191406 159.054688 3.429688 " fill-opacity="1" fill-rule="nonzero"></path></g><g clip-path="url(#7da118d9f0)"><path fill="#1f5167" d="M 151.910156 12.367188 C 151.914062 12.25 151.917969 12.125 151.925781 12.007812 C 151.933594 11.847656 151.949219 11.683594 151.964844 11.527344 C 152.003906 11.191406 152.054688 10.863281 152.125 10.53125 C 152.160156 10.359375 152.203125 10.1875 152.25 10.019531 C 152.289062 9.867188 152.332031 9.71875 152.378906 9.566406 C 153.15625 8.929688 153.949219 8.46875 154.246094 8.546875 C 155.261719 8.8125 153.390625 11.554688 151.910156 12.367188 " fill-opacity="1" fill-rule="nonzero"></path></g><path fill="#1f5167" d="M 174.011719 5.007812 C 174.808594 6.101562 169.28125 7.347656 168.859375 5.863281 C 168.433594 4.378906 173.550781 4.375 174.011719 5.007812 " fill-opacity="1" fill-rule="nonzero"></path><path fill="#1f5167" d="M 160.714844 6.796875 C 161.988281 7.25 158.121094 11.402344 156.9375 10.417969 C 155.753906 9.429688 159.980469 6.535156 160.714844 6.796875 " fill-opacity="1" fill-rule="nonzero"></path><path fill="#1f5167" d="M 167.667969 17.191406 C 168.945312 17.644531 165.078125 21.796875 163.890625 20.8125 C 162.707031 19.824219 166.933594 16.929688 167.667969 17.191406 " fill-opacity="1" fill-rule="nonzero"></path><path fill="#1f5167" d="M 174.445312 13.800781 C 174.929688 15.066406 169.269531 14.832031 169.242188 13.289062 C 169.21875 11.746094 174.164062 13.070312 174.445312 13.800781 " fill-opacity="1" fill-rule="nonzero"></path><path fill="#1f5167" d="M 159.339844 11.632812 C 159.4375 12.792969 160.5625 12.570312 159.972656 13.101562 C 159.378906 13.628906 157.9375 13.855469 157.835938 12.976562 C 157.730469 12.101562 159.277344 10.910156 159.339844 11.632812 " fill-opacity="1" fill-rule="nonzero"></path><path fill="#1f5167" d="M 164.539062 28.152344 L 163.355469 28.167969 C 162.917969 27.660156 162.289062 27.875 162.664062 27.347656 C 163.121094 26.695312 164.476562 26.152344 164.773438 26.984375 C 164.894531 27.324219 164.757812 27.78125 164.539062 28.152344 " fill-opacity="1" fill-rule="nonzero"></path><path fill="#1f5167" d="M 162.917969 8.078125 C 164.484375 6.519531 165.734375 6.433594 166.175781 7.328125 C 166.621094 8.222656 164.367188 8.234375 163.917969 8.980469 C 163.472656 9.726562 162.445312 10.34375 162.085938 9.765625 C 161.730469 9.183594 162.917969 8.078125 162.917969 8.078125 " fill-opacity="1" fill-rule="nonzero"></path><path fill="#1f5167" d="M 172.964844 2.773438 C 172.582031 3.089844 171.613281 2.878906 171.496094 2.367188 C 171.441406 2.144531 171.503906 1.914062 171.632812 1.734375 L 172.964844 2.773438 " fill-opacity="1" fill-rule="nonzero"></path><path fill="#1f5167" d="M 164.320312 2.339844 C 165.566406 2.875 163.996094 4.035156 163.398438 3.582031 C 162.796875 3.125 163.070312 1.800781 164.320312 2.339844 " fill-opacity="1" fill-rule="nonzero"></path><path fill="#1f5167" d="M 178.207031 10.3125 C 177.328125 10.996094 176.035156 11.335938 175.289062 10.773438 C 173.988281 9.78125 174.183594 7.304688 176.007812 7.027344 L 176.824219 8.242188 L 177.144531 8.71875 L 177.792969 9.695312 L 178.128906 10.195312 L 178.207031 10.3125 " fill-opacity="1" fill-rule="nonzero"></path><path fill="#1f5167" d="M 154.597656 15.828125 C 155.847656 16.363281 154.273438 17.527344 153.675781 17.070312 C 153.078125 16.613281 153.347656 15.292969 154.597656 15.828125 " fill-opacity="1" fill-rule="nonzero"></path><path fill="#1f5167" d="M 169.695312 9.382812 C 170.945312 9.917969 169.371094 11.082031 168.773438 10.625 C 168.171875 10.171875 168.445312 8.847656 169.695312 9.382812 " fill-opacity="1" fill-rule="nonzero"></path><path fill="#1f5167" d="M 155.144531 20.222656 C 155.121094 20.199219 155.101562 20.175781 155.078125 20.152344 C 154.96875 20.035156 154.863281 19.917969 154.761719 19.800781 C 154.566406 19.574219 154.382812 19.347656 154.207031 19.113281 C 154.382812 18.863281 154.742188 18.742188 155.292969 18.980469 C 156.128906 19.335938 155.699219 19.976562 155.144531 20.222656 " fill-opacity="1" fill-rule="nonzero"></path><path fill="#1f5167" d="M 160.410156 19.957031 C 159.589844 20.691406 158.484375 20.792969 157.941406 20.183594 C 157.402344 19.574219 157.625 18.484375 158.445312 17.75 C 159.269531 17.011719 160.375 16.914062 160.917969 17.523438 C 161.460938 18.132812 161.234375 19.222656 160.410156 19.957031 " fill-opacity="1" fill-rule="nonzero"></path><path fill="#1f5167" d="M 165.253906 14.300781 C 164.722656 14.777344 164.765625 15.699219 164.289062 15.164062 C 163.8125 14.628906 163.859375 13.808594 164.394531 13.332031 C 164.925781 12.855469 165.746094 12.902344 166.21875 13.433594 C 166.695312 13.96875 165.789062 13.820312 165.253906 14.300781 " fill-opacity="1" fill-rule="nonzero"></path><path fill="#1f5167" d="M 154.800781 6.148438 C 154.28125 6.949219 154.652344 8.109375 153.859375 7.589844 C 153.691406 7.484375 153.550781 7.351562 153.4375 7.207031 C 153.496094 7.109375 153.554688 7.011719 153.613281 6.917969 C 153.792969 6.632812 153.988281 6.351562 154.195312 6.078125 C 154.585938 5.558594 155.023438 5.058594 155.503906 4.578125 C 155.585938 4.613281 155.664062 4.65625 155.738281 4.707031 C 156.535156 5.234375 155.316406 5.355469 154.800781 6.148438 " fill-opacity="1" fill-rule="nonzero"></path><path fill="#1f5167" d="M 160.578125 24.386719 C 160.550781 25.035156 160.894531 25.632812 160.984375 26.015625 L 160.816406 25.847656 L 159.917969 24.960938 L 159.664062 24.710938 L 158.71875 23.773438 L 158.648438 23.699219 C 158.941406 22.867188 159.75 22.292969 160.671875 22.335938 C 161.800781 22.386719 160.628906 23.25 160.578125 24.386719 " fill-opacity="1" fill-rule="nonzero"></path></svg>