<svg xmlns="http://www.w3.org/2000/svg" xmlns:xlink="http://www.w3.org/1999/xlink" zoomAndPan="magnify" viewBox="0 0 75 74.999997" preserveAspectRatio="xMidYMid meet" version="1.0"><defs><clipPath id="9873629fa2"><path d="M 40 28 L 75 28 L 75 74.25 L 40 74.25 Z M 40 28 " clip-rule="nonzero"></path></clipPath></defs><path fill="currentColor" d="M 45.273438 2.789062 C 44.898438 2.789062 44.527344 2.96875 44.304688 3.308594 L 20.984375 37.90625 C 20.625 38.441406 20.765625 39.171875 21.300781 39.53125 L 25.007812 42.03125 C 25.542969 42.390625 26.273438 42.25 26.632812 41.714844 L 49.953125 7.113281 C 50.3125 6.578125 50.171875 5.847656 49.636719 5.488281 L 45.929688 2.988281 C 45.730469 2.851562 45.5 2.789062 45.273438 2.789062 Z M 25.660156 43.882812 C 25.117188 43.882812 24.570312 43.726562 24.085938 43.402344 L 20.378906 40.902344 C 19.089844 40.03125 18.742188 38.273438 19.613281 36.984375 L 42.933594 2.382812 C 43.804688 1.09375 45.5625 0.75 46.851562 1.617188 L 50.558594 4.117188 C 51.851562 4.988281 52.195312 6.746094 51.324219 8.039062 L 28.003906 42.636719 C 27.460938 43.449219 26.566406 43.882812 25.660156 43.882812 " fill-opacity="1" fill-rule="nonzero"></path><path fill="currentColor" d="M 17.425781 44.378906 C 17.328125 44.378906 17.230469 44.390625 17.132812 44.40625 C 16.738281 44.484375 16.398438 44.710938 16.175781 45.042969 L 3.507812 63.839844 C 13.777344 62.386719 21.714844 49.035156 21.800781 48.894531 C 22.289062 48.164062 22.105469 47.230469 21.421875 46.765625 L 18.261719 44.636719 C 18.007812 44.46875 17.71875 44.378906 17.425781 44.378906 Z M 0.304688 65.636719 L 14.804688 44.117188 C 15.277344 43.421875 15.992188 42.949219 16.816406 42.785156 C 17.648438 42.625 18.488281 42.796875 19.183594 43.265625 L 22.34375 45.394531 C 23.785156 46.367188 24.167969 48.332031 23.195312 49.773438 C 22.851562 50.375 13.859375 65.480469 1.882812 65.617188 L 0.304688 65.636719 " fill-opacity="1" fill-rule="nonzero"></path><path fill="currentColor" d="M 22.398438 47.253906 C 22.238281 47.253906 22.082031 47.210938 21.9375 47.113281 C 21.558594 46.859375 21.457031 46.347656 21.714844 45.96875 L 24.105469 42.421875 C 24.363281 42.042969 24.875 41.941406 25.253906 42.195312 C 25.632812 42.449219 25.730469 42.964844 25.476562 43.34375 L 23.085938 46.890625 C 22.925781 47.128906 22.664062 47.253906 22.398438 47.253906 " fill-opacity="1" fill-rule="nonzero"></path><path fill="currentColor" d="M 18.238281 44.449219 C 18.078125 44.449219 17.917969 44.40625 17.773438 44.308594 C 17.398438 44.054688 17.296875 43.539062 17.550781 43.164062 L 19.945312 39.613281 C 20.199219 39.234375 20.714844 39.136719 21.089844 39.390625 C 21.46875 39.644531 21.570312 40.160156 21.3125 40.539062 L 18.921875 44.085938 C 18.765625 44.324219 18.5 44.449219 18.238281 44.449219 " fill-opacity="1" fill-rule="nonzero"></path><g clip-path="url(#9873629fa2)"><path fill="currentColor" d="M 48.203125 74.230469 L 44.40625 60.550781 L 42.613281 65.09375 C 42.445312 65.519531 41.96875 65.726562 41.542969 65.558594 C 41.121094 65.394531 40.910156 64.914062 41.078125 64.492188 L 44.675781 55.351562 L 48.476562 69.03125 L 50.46875 63.96875 L 54.476562 63.96875 L 54.796875 62.972656 C 56.527344 57.625 59.792969 53.007812 64.234375 49.625 L 64.371094 49.527344 C 66.441406 47.78125 68.824219 45.484375 70.125 43.972656 C 70.464844 43.582031 70.792969 43.132812 71.105469 42.640625 C 71.492188 42.035156 71.808594 41.410156 72.046875 40.777344 C 72.960938 38.339844 72.882812 36.058594 71.8125 33.996094 C 70.585938 31.617188 68.164062 30.039062 65.5 29.859375 C 60.609375 29.546875 58.398438 34.421875 58.304688 34.628906 L 57.558594 36.339844 L 56.792969 34.632812 C 56.691406 34.410156 54.25 29.125 48.875 30.027344 C 46.5625 30.417969 44.519531 31.867188 43.402344 33.910156 C 43.0625 34.539062 42.808594 35.203125 42.652344 35.878906 C 42.601562 36.101562 41.464844 41.078125 46.242188 45.347656 C 46.871094 45.910156 49.226562 47.886719 51.503906 49.796875 C 53.441406 51.421875 55.277344 52.960938 55.953125 53.550781 C 56.296875 53.851562 56.332031 54.371094 56.03125 54.714844 C 55.734375 55.058594 55.210938 55.097656 54.867188 54.796875 C 54.199219 54.21875 52.375 52.683594 50.4375 51.0625 C 48.15625 49.144531 45.789062 47.160156 45.140625 46.578125 C 39.597656 41.621094 40.984375 35.742188 41.042969 35.492188 C 41.234375 34.683594 41.539062 33.878906 41.957031 33.121094 C 43.3125 30.632812 45.796875 28.871094 48.601562 28.398438 C 53.351562 27.601562 56.25 30.75 57.53125 32.636719 C 58.695312 30.847656 61.273438 27.925781 65.605469 28.214844 C 68.847656 28.425781 71.789062 30.351562 73.28125 33.234375 C 74.554688 35.695312 74.664062 38.503906 73.59375 41.359375 C 73.316406 42.097656 72.949219 42.828125 72.5 43.53125 C 72.144531 44.085938 71.769531 44.597656 71.378906 45.050781 C 70.003906 46.644531 67.597656 48.96875 65.394531 50.824219 L 65.238281 50.9375 C 61.0625 54.121094 57.996094 58.457031 56.367188 63.480469 L 55.679688 65.617188 L 51.59375 65.617188 L 48.203125 74.230469 " fill-opacity="1" fill-rule="nonzero"></path></g><path fill="currentColor" d="M 31.128906 73.6875 L 27.949219 65.617188 L 24.792969 65.617188 C 24.335938 65.617188 23.964844 65.25 23.964844 64.792969 C 23.964844 64.335938 24.335938 63.96875 24.792969 63.96875 L 29.074219 63.96875 L 30.855469 68.488281 L 34.351562 55.898438 L 37.53125 63.96875 L 41.84375 63.96875 C 42.300781 63.96875 42.671875 64.335938 42.671875 64.792969 C 42.671875 65.25 42.300781 65.617188 41.84375 65.617188 L 36.40625 65.617188 L 34.625 61.097656 L 31.128906 73.6875 " fill-opacity="1" fill-rule="nonzero"></path><path fill="currentColor" d="M 21.011719 65.617188 L 17.976562 65.617188 C 17.519531 65.617188 17.148438 65.25 17.148438 64.792969 C 17.148438 64.335938 17.519531 63.96875 17.976562 63.96875 L 21.011719 63.96875 C 21.46875 63.96875 21.839844 64.335938 21.839844 64.792969 C 21.839844 65.25 21.46875 65.617188 21.011719 65.617188 " fill-opacity="1" fill-rule="nonzero"></path><path fill="currentColor" d="M 14.875 65.617188 L 11.832031 65.617188 C 11.378906 65.617188 11.007812 65.25 11.007812 64.792969 C 11.007812 64.335938 11.378906 63.96875 11.832031 63.96875 L 14.875 63.96875 C 15.328125 63.96875 15.699219 64.335938 15.699219 64.792969 C 15.699219 65.25 15.328125 65.617188 14.875 65.617188 " fill-opacity="1" fill-rule="nonzero"></path></svg>