<?xml version="1.0" encoding="UTF-8"?>
<svg id="Layer_1" data-name="Layer 1" xmlns="http://www.w3.org/2000/svg" xmlns:xlink="http://www.w3.org/1999/xlink" viewBox="0 0 408.37 91.11">
  <defs>
    <style>
      .cls-1 {
        fill: url(#linear-gradient);
        stroke-width: 0px;
      }
    </style>
    <linearGradient id="linear-gradient" x1="440.3" y1="45.56" x2="-56.97" y2="45.56" gradientUnits="userSpaceOnUse">
      <stop offset="0" stop-color="#e77286"/>
      <stop offset=".35" stop-color="#f8acac"/>
      <stop offset=".43" stop-color="#f0a7ac"/>
      <stop offset=".54" stop-color="#dc9cac"/>
      <stop offset=".68" stop-color="#bb8aac"/>
      <stop offset=".83" stop-color="#8e70ac"/>
      <stop offset=".89" stop-color="#7b66ad"/>
    </linearGradient>
  </defs>
  <path class="cls-1" d="M41.49,86.97c-.29,1.35-2.39,2.24-3.65,2.38-4.26.48-13.74.38-18.09.01-3.55-.3-4.52-1.73-4.28-5.26.72-10.5,14.18-26.68,23.58-30.97,6.37-2.9,13.63-3.15,20.26-5.11,8.8-2.6,7.14-8.08,8.22-15.57.24-1.67,1.12-3.85,1.21-5.16.2-2.96-2.63-4.44-5.26-4.53-4.64-.15-11.01,2.44-15.17-.66-1.43-1.07-2.86-3.04-4.28-4.29-7.46-6.55-12.57-7.45-22.27-5.45-1.9.39-4.43,1.99-5.99.73-.47-.61-.42-7.67-.14-8.76.51-1.98,2.33-2.39,4.12-2.54,11.05-.94,23.4.74,34.6,0,8.22.37,16.16,1.81,23.15,6.35,15.91,10.34,17.59,33.97,4.44,47.28-.84.85-5.31,4.04-5.22,4.54l18.33,23.87c1.7,3.6-.45,5.24-3.91,5.52-6.99.57-14.83-.48-21.91,0-1.33,0-2.48-.79-3.31-1.76l-16.33-22.04h-8.09v21.41ZM29.94,17.34c-1.14-4.17-11.36-.57-14.04.59C8.94,20.95,1.79,27.27.34,35.03c-.97,5.22.21,13.17,3.03,17.74,4.91,7.97,16.36,4.21,17.18-4.51.97-10.22-5.34-15.85,3.61-24.78,1.35-1.35,6.31-4.23,5.78-6.15ZM40.3,26.81c3.25-.66,2.39-6.13-1.44-5.28-3.09.68-2.26,6.02,1.44,5.28ZM158.33,75.04c.88,1.06,1.37,2.29,1.44,3.72.09,1.43-.22,2.84-.94,4.22-.71,1.38-1.92,2.54-3.6,3.46-2.94,1.68-6.21,2.88-9.83,3.6-3.61.71-7.05,1.07-10.33,1.07-7.3,0-13.59-1.31-18.84-3.91-5.25-2.6-9.28-6.32-12.09-11.15-2.82-4.83-4.22-10.56-4.22-17.2s1.37-11.94,4.09-16.7c2.74-4.74,6.5-8.5,11.28-11.27,4.79-2.78,10.2-4.16,16.25-4.16,4.62,0,8.71.74,12.28,2.2,3.57,1.47,6.66,3.58,9.26,6.3,2.6,2.74,4.58,6.05,5.93,9.96,1.34,3.9,2.01,8.25,2.01,13.04,0,1.59-.51,2.8-1.52,3.58-1,.8-2.47,1.2-4.4,1.2h-37.11c.56,4.07,1.93,7.21,4.09,9.46,2.94,3.02,7.39,4.53,13.37,4.53,2.01,0,4.3-.25,6.87-.76,2.56-.51,5.01-1.31,7.36-2.39,2.02-.92,3.75-1.22,5.17-.89,1.43.34,2.59,1.04,3.46,2.08ZM117.96,53.18h27.27c-.13-2.68-.62-4.97-1.46-6.87-1.01-2.3-2.45-4.07-4.34-5.29-1.89-1.22-4.22-1.83-7-1.83-3.11,0-5.75.71-7.94,2.14-2.19,1.43-3.87,3.51-5.04,6.24-.71,1.67-1.22,3.54-1.49,5.61ZM227.06,77.63l-16.19-19.61,14.67-17.95c1.77-2.1,2.6-4.13,2.53-6.11-.09-1.96-.82-3.63-2.2-4.97-1.4-1.35-3.27-2.02-5.62-2.02s-4.13.39-5.61,1.13c-1.47.76-2.87,2.02-4.22,3.79l-10.26,13.1-10.15-13.1c-1.25-1.77-2.65-3.03-4.15-3.79-1.52-.74-3.49-1.13-5.93-1.13-2.26,0-4.12.65-5.55,1.95-1.43,1.31-2.19,2.94-2.26,4.92-.09,1.98.76,4.01,2.51,6.11l14.63,18.08-15.88,19.6c-1.77,2.1-2.63,4.16-2.59,6.17.04,2.02.8,3.69,2.27,4.98,1.46,1.31,3.33,1.95,5.61,1.95s4.15-.42,5.66-1.25c1.52-.85,2.9-2.07,4.16-3.66l11.58-14.62,11.48,14.62c1.34,1.68,2.77,2.91,4.28,3.72,1.5.8,3.4,1.19,5.66,1.19s4.27-.67,5.74-2.01c1.47-1.34,2.22-3.03,2.26-5.04.04-2.02-.77-4.03-2.45-6.05ZM315.71,6.19c-.37-1.93-1.32-3.45-2.82-4.53-1.52-1.1-3.36-1.65-5.55-1.65-2.78,0-4.91.64-6.36,1.9-1.47,1.25-2.8,3.11-3.97,5.53l-24.58,57.21-24.7-57.21c-1.01-2.42-2.25-4.28-3.72-5.53-1.47-1.26-3.72-1.9-6.74-1.9-2.19,0-4.1.55-5.74,1.65-1.64,1.09-2.68,2.6-3.09,4.53-.42,1.93-.07,4.19,1.01,6.79l31.62,70.56c1.17,2.44,2.63,4.27,4.36,5.49,1.71,1.22,3.93,1.83,6.62,1.83s5-.61,6.68-1.83c1.68-1.22,3.02-3.05,4.03-5.49l31.76-70.56c1.17-2.6,1.58-4.86,1.19-6.79ZM360.62,77.6c.73.86,1.13,1.89,1.2,3.08.07,1.17-.19,2.33-.79,3.49-.59,1.14-1.58,2.1-2.97,2.87-2.44,1.38-5.14,2.38-8.13,2.97-2.99.58-5.84.88-8.56.88-6.05,0-11.24-1.07-15.6-3.23-4.34-2.16-7.69-5.23-10.01-9.23-2.33-4-3.51-8.76-3.51-14.24s1.13-9.9,3.4-13.83c2.25-3.93,5.37-7.05,9.34-9.34,3.95-2.3,8.45-3.45,13.46-3.45,3.82,0,7.21.61,10.17,1.83,2.96,1.22,5.52,2.96,7.67,5.22s3.79,5.01,4.91,8.24c1.12,3.24,1.67,6.84,1.67,10.81,0,1.32-.42,2.3-1.25,2.97-.83.65-2.05.98-3.66.98h-30.73c.46,3.36,1.61,5.98,3.4,7.84,2.42,2.5,6.11,3.75,11.05,3.75,1.68,0,3.57-.21,5.69-.62,2.13-.42,4.15-1.07,6.1-1.98,1.68-.77,3.11-1.01,4.28-.73,1.19.27,2.14.85,2.87,1.72ZM327.2,59.49h22.58c-.12-2.22-.52-4.1-1.2-5.68-.83-1.92-2.04-3.38-3.6-4.39-1.58-1.01-3.51-1.52-5.8-1.52-2.57,0-4.76.59-6.57,1.77-1.81,1.19-3.2,2.91-4.18,5.17-.59,1.38-1.01,2.93-1.23,4.64ZM407.37,78.33c-.65-.67-1.47-.97-2.45-.89-.62,0-1.4.1-2.35.31-.94.21-1.92.31-2.97.31-2.99,0-5.14-.71-6.47-2.14-1.32-1.43-1.98-3.6-1.98-6.51v-19.11h9.71c2.01,0,3.54-.51,4.58-1.5,1.06-1.01,1.58-2.45,1.58-4.34s-.52-3.3-1.58-4.27c-1.04-.98-2.57-1.47-4.58-1.47h-9.71v-8.03c0-2.65-.68-4.62-2.04-5.95s-3.32-1.98-5.89-1.98-4.45.65-5.8,1.98c-1.35,1.32-2.04,3.3-2.04,5.95v8.03h-4.59c-1.87,0-3.35.49-4.43,1.47-1.07.97-1.62,2.39-1.62,4.27s.55,3.33,1.62,4.34c1.09,1,2.56,1.5,4.43,1.5h4.59v19.73c0,4.65.77,8.52,2.3,11.58,1.52,3.06,3.91,5.37,7.14,6.93,3.24,1.58,7.26,2.35,12.06,2.35,1.04,0,2.36-.12,3.97-.36,1.59-.25,2.84-.51,3.75-.79,1.46-.49,2.45-1.35,2.97-2.6.52-1.26.79-2.75.79-4.49,0-2.23-.33-3.67-1-4.33Z"/>
</svg>