<svg xmlns="http://www.w3.org/2000/svg" xmlns:xlink="http://www.w3.org/1999/xlink" viewBox="0 0 156.75 149.999998" preserveAspectRatio="xMidYMid meet"><defs><clipPath id="c95459a46f"><path d="M 24.867188 7.621094 L 132.117188 7.621094 L 132.117188 142.621094 L 24.867188 142.621094 Z M 24.867188 7.621094 " clip-rule="nonzero"></path></clipPath></defs><path fill="#f5f8f9" d="M 38.585938 19.484375 C 38.585938 14.023438 43.023438 9.597656 48.496094 9.597656 L 108.484375 9.597656 C 113.957031 9.597656 118.394531 14.023438 118.394531 19.484375 L 118.394531 130.753906 C 118.394531 136.214844 113.957031 140.640625 108.484375 140.640625 L 48.496094 140.640625 C 43.023438 140.640625 38.585938 136.214844 38.585938 130.753906 Z M 38.585938 19.484375 " fill-opacity="1" fill-rule="nonzero"></path><path fill="#e8edf2" d="M 118.394531 19.484375 L 118.394531 130.753906 C 118.394531 136.214844 113.957031 140.640625 108.484375 140.640625 L 100.03125 140.640625 C 105.503906 140.640625 109.9375 136.214844 109.9375 130.753906 L 109.9375 19.484375 C 109.9375 14.023438 105.503906 9.597656 100.03125 9.597656 L 108.484375 9.597656 C 113.957031 9.597656 118.394531 14.023438 118.394531 19.484375 Z M 118.394531 19.484375 " fill-opacity="1" fill-rule="nonzero"></path><path fill="#8db9ff" d="M 69.699219 73.953125 L 63.425781 74.347656 L 29.875 74.347656 C 28.242188 74.347656 26.921875 73.027344 26.921875 71.402344 L 26.921875 30.601562 C 26.921875 28.976562 28.242188 27.65625 29.875 27.65625 L 63.425781 27.65625 L 69.957031 28.300781 C 71.589844 28.300781 72.914062 29.621094 72.914062 31.25 L 72.652344 71.003906 C 72.652344 72.632812 71.328125 73.953125 69.699219 73.953125 Z M 69.699219 73.953125 " fill-opacity="1" fill-rule="nonzero"></path><path fill="#70abf2" d="M 73.714844 30.605469 L 73.714844 71.402344 C 73.714844 73.027344 72.394531 74.347656 70.761719 74.347656 L 61.886719 74.347656 C 64.769531 74.347656 67.109375 72.015625 67.109375 69.136719 L 67.109375 32.867188 C 67.109375 29.988281 64.769531 27.65625 61.886719 27.65625 L 70.761719 27.65625 C 72.394531 27.65625 73.714844 28.972656 73.714844 30.605469 Z M 73.714844 30.605469 " fill-opacity="1" fill-rule="nonzero"></path><path fill="#ffde80" d="M 69.699219 130.121094 L 63.425781 130.519531 L 29.875 130.519531 C 28.242188 130.519531 26.921875 129.199219 26.921875 127.570312 L 26.921875 86.773438 C 26.921875 85.144531 28.242188 83.824219 29.875 83.824219 L 63.425781 83.824219 L 69.957031 84.472656 C 71.589844 84.472656 72.914062 85.792969 72.914062 87.417969 L 72.652344 127.175781 C 72.652344 128.800781 71.328125 130.121094 69.699219 130.121094 Z M 69.699219 130.121094 " fill-opacity="1" fill-rule="nonzero"></path><path fill="#ffce61" d="M 73.714844 86.773438 L 73.714844 127.570312 C 73.714844 129.199219 72.394531 130.515625 70.761719 130.515625 L 61.886719 130.515625 C 64.769531 130.515625 67.109375 128.1875 67.109375 125.308594 L 67.109375 89.035156 C 67.109375 86.160156 64.769531 83.828125 61.886719 83.828125 L 70.761719 83.828125 C 72.394531 83.828125 73.714844 85.144531 73.714844 86.773438 Z M 73.714844 86.773438 " fill-opacity="1" fill-rule="nonzero"></path><path fill="#86e8d0" d="M 126.109375 130.121094 L 119.839844 130.519531 L 86.285156 130.519531 C 84.65625 130.519531 83.332031 129.199219 83.332031 127.570312 L 83.332031 86.773438 C 83.332031 85.144531 84.65625 83.824219 86.285156 83.824219 L 119.839844 83.824219 L 126.371094 84.472656 C 128 84.472656 129.324219 85.792969 129.324219 87.417969 L 129.0625 127.175781 C 129.0625 128.800781 127.742188 130.121094 126.109375 130.121094 Z M 126.109375 130.121094 " fill-opacity="1" fill-rule="nonzero"></path><path fill="#5de1c4" d="M 130.128906 86.773438 L 130.128906 127.570312 C 130.128906 129.199219 128.804688 130.515625 127.171875 130.515625 L 118.296875 130.515625 C 121.183594 130.515625 123.523438 128.1875 123.523438 125.308594 L 123.523438 89.035156 C 123.523438 86.160156 121.183594 83.828125 118.296875 83.828125 L 127.171875 83.828125 C 128.804688 83.828125 130.128906 85.144531 130.128906 86.773438 Z M 130.128906 86.773438 " fill-opacity="1" fill-rule="nonzero"></path><path fill="#ff7e7b" d="M 126.109375 73.953125 L 119.839844 74.347656 L 86.285156 74.347656 C 84.65625 74.347656 83.332031 73.027344 83.332031 71.402344 L 83.332031 30.601562 C 83.332031 28.976562 84.65625 27.65625 86.285156 27.65625 L 119.839844 27.65625 L 126.371094 28.300781 C 128 28.300781 129.324219 29.621094 129.324219 31.25 L 129.0625 71.003906 C 129.0625 72.632812 127.742188 73.953125 126.109375 73.953125 Z M 126.109375 73.953125 " fill-opacity="1" fill-rule="nonzero"></path><path fill="#ff6464" d="M 130.128906 30.605469 L 130.128906 71.402344 C 130.128906 73.027344 128.804688 74.347656 127.171875 74.347656 L 118.296875 74.347656 C 121.183594 74.347656 123.523438 72.015625 123.523438 69.136719 L 123.523438 32.867188 C 123.523438 29.988281 121.183594 27.65625 118.296875 27.65625 L 127.171875 27.65625 C 128.804688 27.65625 130.128906 28.972656 130.128906 30.605469 Z M 130.128906 30.605469 " fill-opacity="1" fill-rule="nonzero"></path><path fill="#f5f8f9" d="M 94.414062 46.558594 L 101.484375 46.558594 C 101.921875 46.558594 102.277344 46.203125 102.277344 45.765625 L 102.277344 38.710938 C 102.277344 38.277344 102.632812 37.921875 103.070312 37.921875 L 110.390625 37.921875 C 110.828125 37.921875 111.183594 38.277344 111.183594 38.710938 L 111.183594 45.765625 C 111.183594 46.203125 111.539062 46.558594 111.976562 46.558594 L 119.046875 46.558594 C 119.484375 46.558594 119.839844 46.914062 119.839844 47.347656 L 119.839844 54.652344 C 119.839844 55.089844 119.484375 55.445312 119.046875 55.445312 L 111.976562 55.445312 C 111.539062 55.445312 111.183594 55.800781 111.183594 56.234375 L 111.183594 63.289062 C 111.183594 63.726562 110.828125 64.082031 110.390625 64.082031 L 103.070312 64.082031 C 102.632812 64.082031 102.277344 63.726562 102.277344 63.289062 L 102.277344 56.234375 C 102.277344 55.800781 101.921875 55.445312 101.484375 55.445312 L 94.414062 55.445312 C 93.976562 55.445312 93.621094 55.089844 93.621094 54.652344 L 93.621094 47.347656 C 93.621094 46.914062 93.976562 46.558594 94.414062 46.558594 Z M 94.414062 46.558594 " fill-opacity="1" fill-rule="nonzero"></path><path fill="#f5f8f9" d="M 101.613281 99.339844 L 101.613281 111.210938 L 97.414062 113.167969 L 92.929688 111.210938 L 92.929688 99.339844 Z M 101.613281 99.339844 " fill-opacity="1" fill-rule="nonzero"></path><path fill="#0ed2b3" d="M 101.613281 111.210938 L 101.613281 117.863281 C 101.613281 120.253906 99.667969 122.195312 97.273438 122.195312 C 94.875 122.195312 92.929688 120.253906 92.929688 117.863281 L 92.929688 111.210938 Z M 101.613281 111.210938 " fill-opacity="1" fill-rule="nonzero"></path><path fill="#e8edf2" d="M 102.160156 99.742188 L 92.386719 99.742188 C 91.929688 99.742188 91.558594 99.371094 91.558594 98.914062 L 91.558594 92.976562 C 91.558594 92.519531 91.929688 92.148438 92.386719 92.148438 L 102.160156 92.148438 C 102.617188 92.148438 102.988281 92.519531 102.988281 92.976562 L 102.988281 98.914062 C 102.988281 99.371094 102.617188 99.742188 102.160156 99.742188 Z M 102.160156 99.742188 " fill-opacity="1" fill-rule="nonzero"></path><path fill="#918291" d="M 48.234375 118.53125 L 38.933594 109.25 C 35.300781 105.625 35.300781 99.746094 38.933594 96.121094 L 41.535156 93.523438 C 42.113281 92.949219 43.046875 92.949219 43.625 93.523438 L 48.421875 98.3125 C 48.996094 98.886719 48.996094 99.820312 48.421875 100.394531 L 46.757812 102.054688 C 46.007812 102.804688 46.007812 104.015625 46.757812 104.761719 L 52.734375 110.726562 C 53.484375 111.472656 54.699219 111.472656 55.445312 110.726562 L 57.109375 109.066406 C 57.6875 108.492188 58.621094 108.492188 59.199219 109.066406 L 63.996094 113.851562 C 64.574219 114.429688 64.574219 115.359375 63.996094 115.9375 L 61.394531 118.53125 C 57.761719 122.15625 51.871094 122.15625 48.234375 118.53125 Z M 48.234375 118.53125 " fill-opacity="1" fill-rule="nonzero"></path><path fill="#f5f8f9" d="M 64.429688 44.351562 C 64.429688 46.269531 63.695312 48.1875 62.226562 49.652344 L 55.539062 56.328125 L 48.335938 53.75 L 44.917969 45.726562 L 51.605469 39.050781 C 54.539062 36.125 59.292969 36.125 62.226562 39.050781 C 63.695312 40.515625 64.429688 42.429688 64.429688 44.351562 Z M 64.429688 44.351562 " fill-opacity="1" fill-rule="nonzero"></path><path fill="#ff7e7b" d="M 55.535156 56.328125 L 48.902344 62.953125 C 45.96875 65.878906 41.210938 65.878906 38.277344 62.953125 C 35.339844 60.023438 35.339844 55.277344 38.277344 52.351562 L 44.917969 45.726562 Z M 55.535156 56.328125 " fill-opacity="1" fill-rule="nonzero"></path><path fill="#f5f8f9" d="M 120.582031 99.339844 L 120.582031 111.210938 L 116.378906 113.167969 L 111.898438 111.210938 L 111.898438 99.339844 Z M 120.582031 99.339844 " fill-opacity="1" fill-rule="nonzero"></path><path fill="#0ed2b3" d="M 120.582031 111.210938 L 120.582031 117.863281 C 120.582031 120.253906 118.636719 122.195312 116.238281 122.195312 C 113.84375 122.195312 111.898438 120.253906 111.898438 117.863281 L 111.898438 111.210938 Z M 120.582031 111.210938 " fill-opacity="1" fill-rule="nonzero"></path><path fill="#e8edf2" d="M 121.125 99.742188 L 111.351562 99.742188 C 110.894531 99.742188 110.523438 99.371094 110.523438 98.914062 L 110.523438 92.976562 C 110.523438 92.519531 110.894531 92.148438 111.351562 92.148438 L 121.125 92.148438 C 121.582031 92.148438 121.953125 92.519531 121.953125 92.976562 L 121.953125 98.914062 C 121.953125 99.371094 121.582031 99.742188 121.125 99.742188 Z M 121.125 99.742188 " fill-opacity="1" fill-rule="nonzero"></path><g clip-path="url(#c95459a46f)"><path fill="#000000" d="M 130.128906 53.710938 C 131.222656 53.710938 132.109375 52.828125 132.109375 51.734375 L 132.109375 30.605469 C 132.109375 27.886719 129.894531 25.679688 127.171875 25.679688 L 120.378906 25.679688 L 120.378906 19.484375 C 120.378906 12.941406 115.042969 7.621094 108.484375 7.621094 L 48.496094 7.621094 C 41.9375 7.621094 36.605469 12.941406 36.605469 19.484375 L 36.605469 25.679688 L 29.808594 25.679688 C 27.085938 25.679688 24.871094 27.886719 24.871094 30.605469 L 24.871094 71.402344 C 24.871094 74.117188 27.085938 76.324219 29.808594 76.324219 L 36.605469 76.324219 L 36.605469 81.824219 L 29.808594 81.824219 C 27.085938 81.824219 24.871094 84.035156 24.871094 86.75 L 24.871094 93.203125 C 24.871094 94.296875 25.757812 95.183594 26.855469 95.183594 C 27.949219 95.183594 28.835938 94.296875 28.835938 93.203125 L 28.835938 86.75 C 28.835938 86.214844 29.273438 85.78125 29.808594 85.78125 L 70.695312 85.78125 C 71.230469 85.78125 71.667969 86.214844 71.667969 86.75 L 71.667969 127.546875 C 71.667969 128.082031 71.230469 128.519531 70.695312 128.519531 L 29.808594 128.519531 C 29.273438 128.519531 28.835938 128.082031 28.835938 127.546875 L 28.835938 102.433594 C 28.835938 101.339844 27.949219 100.457031 26.855469 100.457031 C 25.757812 100.457031 24.871094 101.339844 24.871094 102.433594 L 24.871094 127.546875 C 24.871094 130.265625 27.085938 132.472656 29.808594 132.472656 L 36.730469 132.472656 C 37.566406 138.203125 42.523438 142.621094 48.496094 142.621094 L 108.484375 142.621094 C 114.457031 142.621094 119.414062 138.203125 120.25 132.472656 L 127.175781 132.472656 C 129.894531 132.472656 132.109375 130.265625 132.109375 127.546875 L 132.109375 86.75 C 132.109375 84.035156 129.894531 81.824219 127.175781 81.824219 L 120.378906 81.824219 L 120.378906 76.324219 L 127.175781 76.324219 C 129.894531 76.324219 132.109375 74.117188 132.109375 71.402344 L 132.109375 60.960938 C 132.109375 59.871094 131.222656 58.984375 130.128906 58.984375 C 129.035156 58.984375 128.148438 59.871094 128.148438 60.960938 L 128.148438 71.402344 C 128.148438 71.933594 127.710938 72.371094 127.175781 72.371094 L 86.285156 72.371094 C 85.75 72.371094 85.3125 71.933594 85.3125 71.402344 L 85.3125 30.605469 C 85.3125 30.070312 85.75 29.632812 86.285156 29.632812 L 127.171875 29.632812 C 127.710938 29.632812 128.144531 30.070312 128.144531 30.605469 L 128.144531 51.734375 C 128.144531 52.828125 129.035156 53.710938 130.128906 53.710938 Z M 81.351562 30.605469 L 81.351562 71.402344 C 81.351562 74.117188 83.566406 76.324219 86.285156 76.324219 L 116.414062 76.324219 L 116.414062 81.824219 L 86.285156 81.824219 C 83.566406 81.824219 81.351562 84.035156 81.351562 86.75 L 81.351562 127.546875 C 81.351562 130.265625 83.566406 132.472656 86.285156 132.472656 L 91.558594 132.472656 C 92.652344 132.472656 93.539062 131.589844 93.539062 130.496094 C 93.539062 129.402344 92.652344 128.519531 91.558594 128.519531 L 86.285156 128.519531 C 85.75 128.519531 85.3125 128.082031 85.3125 127.546875 L 85.3125 86.75 C 85.3125 86.214844 85.75 85.78125 86.285156 85.78125 L 127.171875 85.78125 C 127.710938 85.78125 128.144531 86.214844 128.144531 86.75 L 128.144531 127.546875 C 128.144531 128.082031 127.710938 128.519531 127.171875 128.519531 L 100.808594 128.519531 C 99.710938 128.519531 98.824219 129.402344 98.824219 130.496094 C 98.824219 131.589844 99.710938 132.472656 100.808594 132.472656 L 116.222656 132.472656 C 115.433594 136.011719 112.265625 138.664062 108.484375 138.664062 L 48.496094 138.664062 C 44.714844 138.664062 41.546875 136.011719 40.757812 132.472656 L 70.695312 132.472656 C 73.417969 132.472656 75.632812 130.265625 75.632812 127.546875 L 75.632812 86.75 C 75.632812 84.035156 73.417969 81.824219 70.695312 81.824219 L 40.566406 81.824219 L 40.566406 76.324219 L 70.695312 76.324219 C 73.417969 76.324219 75.632812 74.117188 75.632812 71.402344 L 75.632812 30.605469 C 75.632812 27.886719 73.417969 25.679688 70.695312 25.679688 L 56.226562 25.679688 C 55.132812 25.679688 54.246094 26.5625 54.246094 27.65625 C 54.246094 28.75 55.132812 29.632812 56.226562 29.632812 L 70.695312 29.632812 C 71.230469 29.632812 71.667969 30.070312 71.667969 30.605469 L 71.667969 71.402344 C 71.667969 71.933594 71.230469 72.371094 70.695312 72.371094 L 29.808594 72.371094 C 29.273438 72.371094 28.835938 71.933594 28.835938 71.402344 L 28.835938 30.605469 C 28.835938 30.070312 29.273438 29.632812 29.808594 29.632812 L 46.980469 29.632812 C 48.074219 29.632812 48.960938 28.75 48.960938 27.65625 C 48.960938 26.5625 48.074219 25.679688 46.980469 25.679688 L 40.566406 25.679688 L 40.566406 19.484375 C 40.566406 15.121094 44.125 11.574219 48.496094 11.574219 L 108.484375 11.574219 C 112.855469 11.574219 116.414062 15.121094 116.414062 19.484375 L 116.414062 25.679688 L 86.285156 25.679688 C 83.566406 25.679688 81.351562 27.886719 81.351562 30.605469 Z M 81.351562 30.605469 " fill-opacity="1" fill-rule="nonzero"></path></g><path fill="#000000" d="M 102.277344 66.058594 L 111.183594 66.058594 C 112.277344 66.058594 113.164062 65.175781 113.164062 64.082031 L 113.164062 57.421875 L 119.839844 57.421875 C 120.933594 57.421875 121.820312 56.539062 121.820312 55.445312 L 121.820312 46.558594 C 121.820312 45.464844 120.933594 44.582031 119.839844 44.582031 L 113.164062 44.582031 L 113.164062 37.921875 C 113.164062 36.828125 112.277344 35.945312 111.183594 35.945312 L 102.277344 35.945312 C 101.183594 35.945312 100.296875 36.828125 100.296875 37.921875 L 100.296875 44.582031 L 93.621094 44.582031 C 92.527344 44.582031 91.640625 45.464844 91.640625 46.558594 L 91.640625 55.445312 C 91.640625 56.539062 92.527344 57.421875 93.621094 57.421875 L 100.296875 57.421875 L 100.296875 64.082031 C 100.296875 65.175781 101.183594 66.058594 102.277344 66.058594 Z M 95.601562 53.46875 L 95.601562 48.535156 L 102.277344 48.535156 C 103.371094 48.535156 104.257812 47.652344 104.257812 46.558594 L 104.257812 39.898438 L 109.203125 39.898438 L 109.203125 46.558594 C 109.203125 47.652344 110.089844 48.535156 111.183594 48.535156 L 117.855469 48.535156 L 117.855469 53.46875 L 111.183594 53.46875 C 110.089844 53.46875 109.203125 54.351562 109.203125 55.445312 L 109.203125 62.105469 L 104.257812 62.105469 L 104.257812 55.445312 C 104.257812 54.351562 103.371094 53.46875 102.277344 53.46875 Z M 95.601562 53.46875 " fill-opacity="1" fill-rule="nonzero"></path><path fill="#000000" d="M 49.820312 96.914062 L 45.027344 92.125 C 43.675781 90.78125 41.484375 90.78125 40.132812 92.125 L 37.53125 94.722656 C 33.132812 99.113281 33.132812 106.257812 37.53125 110.648438 L 46.835938 119.929688 C 49.035156 122.125 51.925781 123.222656 54.816406 123.222656 C 57.703125 123.222656 60.59375 122.125 62.792969 119.929688 L 65.398438 117.335938 C 66.746094 115.988281 66.746094 113.800781 65.398438 112.453125 L 60.601562 107.667969 C 59.253906 106.320312 57.058594 106.320312 55.707031 107.667969 L 54.089844 109.28125 L 48.203125 103.410156 L 49.824219 101.792969 C 51.171875 100.449219 51.171875 98.257812 49.820312 96.914062 Z M 51.332031 112.125 C 52.070312 112.859375 53.046875 113.265625 54.089844 113.265625 C 55.132812 113.265625 56.113281 112.859375 56.847656 112.125 L 58.15625 110.820312 L 62.238281 114.894531 L 59.992188 117.132812 C 57.136719 119.984375 52.492188 119.984375 49.636719 117.132812 L 40.335938 107.851562 C 37.480469 105.003906 37.480469 100.367188 40.335938 97.519531 L 42.578125 95.277344 L 46.664062 99.351562 L 45.355469 100.65625 C 44.617188 101.390625 44.214844 102.367188 44.214844 103.410156 C 44.214844 104.449219 44.617188 105.425781 45.355469 106.160156 Z M 51.332031 112.125 " fill-opacity="1" fill-rule="nonzero"></path><path fill="#000000" d="M 103.59375 117.863281 L 103.59375 101.320312 C 104.417969 100.832031 104.96875 99.9375 104.96875 98.914062 L 104.96875 92.976562 C 104.96875 91.429688 103.710938 90.171875 102.160156 90.171875 L 92.386719 90.171875 C 90.835938 90.171875 89.574219 91.429688 89.574219 92.976562 L 89.574219 98.914062 C 89.574219 99.9375 90.128906 100.832031 90.949219 101.320312 L 90.949219 117.863281 C 90.949219 121.34375 93.785156 124.171875 97.273438 124.171875 C 100.757812 124.171875 103.59375 121.34375 103.59375 117.863281 Z M 94.914062 101.71875 L 99.632812 101.71875 L 99.632812 109.230469 L 94.914062 109.230469 Z M 93.539062 94.128906 L 101.007812 94.128906 L 101.007812 97.765625 L 93.539062 97.765625 Z M 94.914062 117.863281 L 94.914062 113.1875 L 99.632812 113.1875 L 99.632812 117.863281 C 99.632812 119.160156 98.574219 120.21875 97.273438 120.21875 C 95.972656 120.21875 94.914062 119.160156 94.914062 117.863281 Z M 94.914062 117.863281 " fill-opacity="1" fill-rule="nonzero"></path><path fill="#000000" d="M 109.917969 101.320312 L 109.917969 117.863281 C 109.917969 121.34375 112.753906 124.171875 116.238281 124.171875 C 119.726562 124.171875 122.5625 121.34375 122.5625 117.863281 L 122.5625 101.320312 C 123.382812 100.832031 123.9375 99.9375 123.9375 98.914062 L 123.9375 92.976562 C 123.9375 91.429688 122.675781 90.171875 121.125 90.171875 L 111.351562 90.171875 C 109.804688 90.171875 108.542969 91.429688 108.542969 92.976562 L 108.542969 98.914062 C 108.542969 99.9375 109.09375 100.832031 109.917969 101.320312 Z M 118.597656 101.71875 L 118.597656 109.230469 L 113.878906 109.230469 L 113.878906 101.71875 Z M 116.238281 120.21875 C 114.9375 120.21875 113.878906 119.160156 113.878906 117.863281 L 113.878906 113.1875 L 118.597656 113.1875 L 118.597656 117.863281 C 118.597656 119.160156 117.539062 120.21875 116.238281 120.21875 Z M 112.503906 94.128906 L 119.972656 94.128906 L 119.972656 97.765625 L 112.503906 97.765625 Z M 112.503906 94.128906 " fill-opacity="1" fill-rule="nonzero"></path><path fill="#000000" d="M 36.773438 50.964844 C 33.050781 54.683594 33.050781 60.730469 36.773438 64.449219 C 38.636719 66.308594 41.085938 67.238281 43.53125 67.238281 C 45.980469 67.238281 48.425781 66.308594 50.289062 64.449219 L 63.726562 51.039062 C 67.453125 47.320312 67.453125 41.273438 63.726562 37.554688 C 61.921875 35.753906 59.523438 34.761719 56.972656 34.761719 C 54.417969 34.761719 52.019531 35.753906 50.214844 37.554688 Z M 47.488281 61.652344 C 45.304688 63.828125 41.757812 63.828125 39.578125 61.652344 C 37.398438 59.476562 37.398438 55.9375 39.578125 53.761719 L 44.867188 48.480469 L 52.777344 56.371094 Z M 56.972656 38.714844 C 58.464844 38.714844 59.867188 39.296875 60.925781 40.351562 C 63.105469 42.527344 63.105469 46.066406 60.925781 48.242188 L 55.582031 53.574219 L 47.671875 45.683594 L 53.015625 40.351562 C 54.074219 39.296875 55.476562 38.714844 56.972656 38.714844 Z M 56.972656 38.714844 " fill-opacity="1" fill-rule="nonzero"></path><path fill="#000000" d="M 81.726562 15.53125 L 68.515625 15.53125 C 67.421875 15.53125 66.53125 16.414062 66.53125 17.507812 C 66.53125 18.597656 67.421875 19.484375 68.515625 19.484375 L 81.726562 19.484375 C 82.824219 19.484375 83.710938 18.597656 83.710938 17.507812 C 83.710938 16.414062 82.824219 15.53125 81.726562 15.53125 Z M 81.726562 15.53125 " fill-opacity="1" fill-rule="nonzero"></path><path fill="#000000" d="M 90.449219 17.507812 C 90.449219 17.769531 90.402344 18.023438 90.300781 18.265625 C 90.199219 18.507812 90.054688 18.71875 89.871094 18.90625 C 89.683594 19.089844 89.46875 19.234375 89.226562 19.335938 C 88.984375 19.433594 88.730469 19.484375 88.46875 19.484375 C 88.207031 19.484375 87.953125 19.433594 87.710938 19.335938 C 87.46875 19.234375 87.253906 19.089844 87.066406 18.90625 C 86.882812 18.71875 86.738281 18.507812 86.636719 18.265625 C 86.539062 18.023438 86.488281 17.769531 86.488281 17.507812 C 86.488281 17.246094 86.539062 16.992188 86.636719 16.75 C 86.738281 16.507812 86.882812 16.292969 87.066406 16.109375 C 87.253906 15.921875 87.46875 15.78125 87.710938 15.679688 C 87.953125 15.578125 88.207031 15.53125 88.46875 15.53125 C 88.730469 15.53125 88.984375 15.578125 89.226562 15.679688 C 89.46875 15.78125 89.683594 15.921875 89.871094 16.109375 C 90.054688 16.292969 90.199219 16.507812 90.300781 16.75 C 90.402344 16.992188 90.449219 17.246094 90.449219 17.507812 Z M 90.449219 17.507812 " fill-opacity="1" fill-rule="nonzero"></path></svg>