<svg xmlns="http://www.w3.org/2000/svg" xmlns:xlink="http://www.w3.org/1999/xlink" viewBox="0 0 156.75 149.999998" preserveAspectRatio="xMidYMid meet"><defs><clipPath id="17c5e62a22"><path d="M 12.875 17 L 132 17 L 132 35 L 12.875 35 Z M 12.875 17 " clip-rule="nonzero"></path></clipPath><clipPath id="dfcd77f40b"><path d="M 12.875 34 L 132 34 L 132 137 L 12.875 137 Z M 12.875 34 " clip-rule="nonzero"></path></clipPath><clipPath id="d6b04c4972"><path d="M 29 9.617188 L 42 9.617188 L 42 29 L 29 29 Z M 29 9.617188 " clip-rule="nonzero"></path></clipPath><clipPath id="a369a2b455"><path d="M 103 9.617188 L 116 9.617188 L 116 29 L 103 29 Z M 103 9.617188 " clip-rule="nonzero"></path></clipPath><clipPath id="cef67f3336"><path d="M 90 87 L 144.125 87 L 144.125 140.867188 L 90 140.867188 Z M 90 87 " clip-rule="nonzero"></path></clipPath></defs><g clip-path="url(#17c5e62a22)"><path fill="#2fe0ad" d="M 131.820312 34.226562 L 12.875 34.226562 L 12.875 26.023438 C 12.875 21.511719 16.566406 17.820312 21.078125 17.820312 L 123.617188 17.820312 C 128.128906 17.820312 131.820312 21.511719 131.820312 26.023438 Z M 131.820312 34.226562 " fill-opacity="1" fill-rule="nonzero"></path></g><g clip-path="url(#dfcd77f40b)"><path fill="#f4f4f4" d="M 123.617188 136.765625 L 21.078125 136.765625 C 16.566406 136.765625 12.875 133.074219 12.875 128.5625 L 12.875 34.226562 L 131.820312 34.226562 L 131.820312 128.5625 C 131.820312 133.074219 128.128906 136.765625 123.617188 136.765625 Z M 123.617188 136.765625 " fill-opacity="1" fill-rule="nonzero"></path></g><g clip-path="url(#d6b04c4972)"><path fill="#3f5c5e" d="M 37.484375 28.074219 L 33.382812 28.074219 C 31.125 28.074219 29.28125 26.230469 29.28125 23.972656 L 29.28125 13.71875 C 29.28125 11.464844 31.125 9.617188 33.382812 9.617188 L 37.484375 9.617188 C 39.738281 9.617188 41.585938 11.464844 41.585938 13.71875 L 41.585938 23.972656 C 41.585938 26.230469 39.738281 28.074219 37.484375 28.074219 Z M 37.484375 28.074219 " fill-opacity="1" fill-rule="nonzero"></path></g><g clip-path="url(#a369a2b455)"><path fill="#3f5c5e" d="M 111.3125 28.074219 L 107.210938 28.074219 C 104.953125 28.074219 103.109375 26.230469 103.109375 23.972656 L 103.109375 13.71875 C 103.109375 11.464844 104.953125 9.617188 107.210938 9.617188 L 111.3125 9.617188 C 113.566406 9.617188 115.414062 11.464844 115.414062 13.71875 L 115.414062 23.972656 C 115.414062 26.230469 113.566406 28.074219 111.3125 28.074219 Z M 111.3125 28.074219 " fill-opacity="1" fill-rule="nonzero"></path></g><path fill="#3f5c5e" d="M 121.566406 42.429688 L 23.128906 42.429688 C 21.898438 42.429688 21.078125 43.25 21.078125 44.480469 L 21.078125 126.511719 C 21.078125 127.742188 21.898438 128.5625 23.128906 128.5625 L 121.566406 128.5625 C 122.796875 128.5625 123.617188 127.742188 123.617188 126.511719 L 123.617188 44.480469 C 123.617188 43.25 122.796875 42.429688 121.566406 42.429688 Z M 94.90625 83.445312 L 74.398438 83.445312 L 74.398438 67.039062 L 94.90625 67.039062 Z M 99.007812 67.039062 L 119.515625 67.039062 L 119.515625 83.445312 L 99.007812 83.445312 Z M 74.398438 62.9375 L 74.398438 46.53125 L 94.90625 46.53125 L 94.90625 62.9375 Z M 70.296875 62.9375 L 49.789062 62.9375 L 49.789062 46.53125 L 70.296875 46.53125 Z M 70.296875 67.039062 L 70.296875 83.445312 L 49.789062 83.445312 L 49.789062 67.039062 Z M 45.6875 83.445312 L 25.179688 83.445312 L 25.179688 67.039062 L 45.6875 67.039062 Z M 25.179688 87.546875 L 45.6875 87.546875 L 45.6875 103.953125 L 25.179688 103.953125 Z M 49.789062 87.546875 L 70.296875 87.546875 L 70.296875 103.953125 L 49.789062 103.953125 Z M 70.296875 108.054688 L 70.296875 124.460938 L 49.789062 124.460938 L 49.789062 108.054688 Z M 74.398438 108.054688 L 94.90625 108.054688 L 94.90625 124.460938 L 74.398438 124.460938 Z M 74.398438 103.953125 L 74.398438 87.546875 L 94.90625 87.546875 L 94.90625 103.953125 Z M 99.007812 87.546875 L 119.515625 87.546875 L 119.515625 103.953125 L 99.007812 103.953125 Z M 119.515625 62.9375 L 99.007812 62.9375 L 99.007812 46.53125 L 119.515625 46.53125 Z M 45.6875 46.53125 L 45.6875 62.9375 L 25.179688 62.9375 L 25.179688 46.53125 Z M 25.179688 108.054688 L 45.6875 108.054688 L 45.6875 124.460938 L 25.179688 124.460938 Z M 99.007812 124.460938 L 99.007812 108.054688 L 119.515625 108.054688 L 119.515625 124.460938 Z M 99.007812 124.460938 " fill-opacity="1" fill-rule="nonzero"></path><path fill="#ef6a6a" d="M 38.304688 54.734375 L 38.917969 54.121094 C 39.738281 53.300781 39.738281 52.070312 38.917969 51.25 C 38.097656 50.429688 36.867188 50.429688 36.046875 51.25 L 35.433594 51.863281 L 34.816406 51.25 C 33.996094 50.429688 32.765625 50.429688 31.945312 51.25 C 31.125 52.070312 31.125 53.300781 31.945312 54.121094 L 32.5625 54.734375 L 31.945312 55.351562 C 31.125 56.171875 31.125 57.402344 31.945312 58.222656 C 32.355469 58.632812 32.765625 58.835938 33.382812 58.835938 C 33.996094 58.835938 34.40625 58.632812 34.816406 58.222656 L 35.433594 57.605469 L 36.046875 58.222656 C 36.457031 58.632812 37.074219 58.835938 37.484375 58.835938 C 37.894531 58.835938 38.507812 58.632812 38.917969 58.222656 C 39.738281 57.402344 39.738281 56.171875 38.917969 55.351562 Z M 38.304688 54.734375 " fill-opacity="1" fill-rule="nonzero"></path><path fill="#ef6a6a" d="M 112.132812 54.734375 L 112.746094 54.121094 C 113.566406 53.300781 113.566406 52.070312 112.746094 51.25 C 111.925781 50.429688 110.695312 50.429688 109.875 51.25 L 109.261719 51.863281 L 108.644531 51.25 C 107.824219 50.429688 106.59375 50.429688 105.773438 51.25 C 104.953125 52.070312 104.953125 53.300781 105.773438 54.121094 L 106.390625 54.734375 L 105.773438 55.351562 C 104.953125 56.171875 104.953125 57.402344 105.773438 58.222656 C 106.183594 58.632812 106.800781 58.835938 107.210938 58.835938 C 107.621094 58.835938 108.234375 58.632812 108.644531 58.222656 L 109.261719 57.605469 L 109.875 58.222656 C 110.285156 58.632812 110.902344 58.835938 111.3125 58.835938 C 111.722656 58.835938 112.335938 58.632812 112.746094 58.222656 C 113.566406 57.402344 113.566406 56.171875 112.746094 55.351562 Z M 112.132812 54.734375 " fill-opacity="1" fill-rule="nonzero"></path><path fill="#ef6a6a" d="M 87.523438 95.75 L 88.136719 95.136719 C 88.957031 94.316406 88.957031 93.085938 88.136719 92.265625 C 87.316406 91.445312 86.085938 91.445312 85.265625 92.265625 L 84.652344 92.878906 L 84.035156 92.265625 C 83.214844 91.445312 81.984375 91.445312 81.164062 92.265625 C 80.34375 93.085938 80.34375 94.316406 81.164062 95.136719 L 81.78125 95.75 L 81.164062 96.367188 C 80.34375 97.1875 80.34375 98.417969 81.164062 99.238281 C 81.574219 99.648438 82.191406 99.851562 82.601562 99.851562 C 83.011719 99.851562 83.625 99.648438 84.035156 99.238281 L 84.652344 98.621094 L 85.265625 99.238281 C 85.675781 99.648438 86.292969 99.851562 86.703125 99.851562 C 87.113281 99.851562 87.726562 99.648438 88.136719 99.238281 C 88.957031 98.417969 88.957031 97.1875 88.136719 96.367188 Z M 87.523438 95.75 " fill-opacity="1" fill-rule="nonzero"></path><path fill="#ef6a6a" d="M 62.914062 116.257812 L 63.527344 115.644531 C 64.347656 114.824219 64.347656 113.59375 63.527344 112.773438 C 62.707031 111.953125 61.476562 111.953125 60.65625 112.773438 L 60.042969 113.386719 L 59.425781 112.773438 C 58.605469 111.953125 57.375 111.953125 56.554688 112.773438 C 55.734375 113.59375 55.734375 114.824219 56.554688 115.644531 L 57.171875 116.257812 L 56.554688 116.875 C 55.734375 117.695312 55.734375 118.925781 56.554688 119.746094 C 56.964844 120.15625 57.582031 120.359375 57.992188 120.359375 C 58.402344 120.359375 59.015625 120.15625 59.425781 119.746094 L 60.042969 119.128906 L 60.65625 119.746094 C 61.066406 120.15625 61.683594 120.359375 62.09375 120.359375 C 62.503906 120.359375 63.117188 120.15625 63.527344 119.746094 C 64.347656 118.925781 64.347656 117.695312 63.527344 116.875 Z M 62.914062 116.257812 " fill-opacity="1" fill-rule="nonzero"></path><path fill="#ef6a6a" d="M 38.304688 75.242188 L 38.917969 74.628906 C 39.738281 73.808594 39.738281 72.578125 38.917969 71.757812 C 38.097656 70.9375 36.867188 70.9375 36.046875 71.757812 L 35.433594 72.371094 L 34.816406 71.757812 C 33.996094 70.9375 32.765625 70.9375 31.945312 71.757812 C 31.125 72.578125 31.125 73.808594 31.945312 74.628906 L 32.5625 75.242188 L 31.945312 75.859375 C 31.125 76.679688 31.125 77.910156 31.945312 78.730469 C 32.355469 79.140625 32.765625 79.34375 33.382812 79.34375 C 33.996094 79.34375 34.40625 79.140625 34.816406 78.730469 L 35.433594 78.113281 L 36.046875 78.730469 C 36.457031 79.140625 37.074219 79.34375 37.484375 79.34375 C 37.894531 79.34375 38.507812 79.140625 38.917969 78.730469 C 39.738281 77.910156 39.738281 76.679688 38.917969 75.859375 Z M 38.304688 75.242188 " fill-opacity="1" fill-rule="nonzero"></path><path fill="#2fe0ad" d="M 64.144531 75.242188 C 64.144531 75.511719 64.117188 75.78125 64.066406 76.042969 C 64.011719 76.308594 63.933594 76.5625 63.832031 76.8125 C 63.726562 77.0625 63.601562 77.296875 63.453125 77.523438 C 63.300781 77.746094 63.132812 77.953125 62.941406 78.144531 C 62.75 78.332031 62.542969 78.503906 62.320312 78.652344 C 62.097656 78.804688 61.859375 78.929688 61.613281 79.03125 C 61.363281 79.136719 61.105469 79.214844 60.84375 79.265625 C 60.578125 79.320312 60.3125 79.34375 60.042969 79.34375 C 59.773438 79.34375 59.503906 79.320312 59.242188 79.265625 C 58.976562 79.214844 58.722656 79.136719 58.472656 79.03125 C 58.222656 78.929688 57.988281 78.804688 57.761719 78.652344 C 57.539062 78.503906 57.332031 78.332031 57.140625 78.144531 C 56.949219 77.953125 56.78125 77.746094 56.632812 77.523438 C 56.480469 77.296875 56.355469 77.0625 56.253906 76.8125 C 56.148438 76.5625 56.070312 76.308594 56.019531 76.042969 C 55.964844 75.78125 55.941406 75.511719 55.941406 75.242188 C 55.941406 74.972656 55.964844 74.707031 56.019531 74.441406 C 56.070312 74.179688 56.148438 73.921875 56.253906 73.671875 C 56.355469 73.425781 56.480469 73.1875 56.632812 72.964844 C 56.78125 72.742188 56.949219 72.535156 57.140625 72.34375 C 57.332031 72.152344 57.539062 71.984375 57.761719 71.832031 C 57.988281 71.683594 58.222656 71.558594 58.472656 71.453125 C 58.722656 71.351562 58.976562 71.273438 59.242188 71.21875 C 59.503906 71.167969 59.773438 71.140625 60.042969 71.140625 C 60.3125 71.140625 60.578125 71.167969 60.84375 71.21875 C 61.105469 71.273438 61.363281 71.351562 61.613281 71.453125 C 61.859375 71.558594 62.097656 71.683594 62.320312 71.832031 C 62.542969 71.984375 62.75 72.152344 62.941406 72.34375 C 63.132812 72.535156 63.300781 72.742188 63.453125 72.964844 C 63.601562 73.1875 63.726562 73.425781 63.832031 73.671875 C 63.933594 73.921875 64.011719 74.179688 64.066406 74.441406 C 64.117188 74.707031 64.144531 74.972656 64.144531 75.242188 Z M 64.144531 75.242188 " fill-opacity="1" fill-rule="nonzero"></path><path fill="#2fe0ad" d="M 113.363281 75.242188 C 113.363281 75.511719 113.335938 75.78125 113.285156 76.042969 C 113.230469 76.308594 113.152344 76.5625 113.050781 76.8125 C 112.945312 77.0625 112.820312 77.296875 112.671875 77.523438 C 112.519531 77.746094 112.351562 77.953125 112.160156 78.144531 C 111.96875 78.332031 111.761719 78.503906 111.539062 78.652344 C 111.316406 78.804688 111.078125 78.929688 110.832031 79.03125 C 110.582031 79.136719 110.324219 79.214844 110.0625 79.265625 C 109.796875 79.320312 109.53125 79.34375 109.261719 79.34375 C 108.992188 79.34375 108.722656 79.320312 108.460938 79.265625 C 108.195312 79.214844 107.941406 79.136719 107.691406 79.03125 C 107.441406 78.929688 107.207031 78.804688 106.980469 78.652344 C 106.757812 78.503906 106.550781 78.332031 106.359375 78.144531 C 106.167969 77.953125 106 77.746094 105.851562 77.523438 C 105.699219 77.296875 105.574219 77.0625 105.472656 76.8125 C 105.367188 76.5625 105.289062 76.308594 105.238281 76.042969 C 105.183594 75.78125 105.160156 75.511719 105.160156 75.242188 C 105.160156 74.972656 105.183594 74.707031 105.238281 74.441406 C 105.289062 74.179688 105.367188 73.921875 105.472656 73.671875 C 105.574219 73.425781 105.699219 73.1875 105.851562 72.964844 C 106 72.742188 106.167969 72.535156 106.359375 72.34375 C 106.550781 72.152344 106.757812 71.984375 106.980469 71.832031 C 107.207031 71.683594 107.441406 71.558594 107.691406 71.453125 C 107.941406 71.351562 108.195312 71.273438 108.460938 71.21875 C 108.722656 71.167969 108.992188 71.140625 109.261719 71.140625 C 109.53125 71.140625 109.796875 71.167969 110.0625 71.21875 C 110.324219 71.273438 110.582031 71.351562 110.832031 71.453125 C 111.078125 71.558594 111.316406 71.683594 111.539062 71.832031 C 111.761719 71.984375 111.96875 72.152344 112.160156 72.34375 C 112.351562 72.535156 112.519531 72.742188 112.671875 72.964844 C 112.820312 73.1875 112.945312 73.425781 113.050781 73.671875 C 113.152344 73.921875 113.230469 74.179688 113.285156 74.441406 C 113.335938 74.707031 113.363281 74.972656 113.363281 75.242188 Z M 113.363281 75.242188 " fill-opacity="1" fill-rule="nonzero"></path><path fill="#2fe0ad" d="M 88.753906 75.242188 C 88.753906 75.511719 88.726562 75.78125 88.675781 76.042969 C 88.621094 76.308594 88.542969 76.5625 88.441406 76.8125 C 88.335938 77.0625 88.210938 77.296875 88.0625 77.523438 C 87.910156 77.746094 87.742188 77.953125 87.550781 78.144531 C 87.359375 78.332031 87.152344 78.503906 86.929688 78.652344 C 86.707031 78.804688 86.46875 78.929688 86.222656 79.03125 C 85.972656 79.136719 85.714844 79.214844 85.453125 79.265625 C 85.1875 79.320312 84.921875 79.34375 84.652344 79.34375 C 84.382812 79.34375 84.113281 79.320312 83.851562 79.265625 C 83.585938 79.214844 83.332031 79.136719 83.082031 79.03125 C 82.832031 78.929688 82.597656 78.804688 82.371094 78.652344 C 82.148438 78.503906 81.941406 78.332031 81.75 78.144531 C 81.558594 77.953125 81.390625 77.746094 81.242188 77.523438 C 81.089844 77.296875 80.964844 77.0625 80.863281 76.8125 C 80.757812 76.5625 80.679688 76.308594 80.628906 76.042969 C 80.574219 75.78125 80.550781 75.511719 80.550781 75.242188 C 80.550781 74.972656 80.574219 74.707031 80.628906 74.441406 C 80.679688 74.179688 80.757812 73.921875 80.863281 73.671875 C 80.964844 73.425781 81.089844 73.1875 81.242188 72.964844 C 81.390625 72.742188 81.558594 72.535156 81.75 72.34375 C 81.941406 72.152344 82.148438 71.984375 82.371094 71.832031 C 82.597656 71.683594 82.832031 71.558594 83.082031 71.453125 C 83.332031 71.351562 83.585938 71.273438 83.851562 71.21875 C 84.113281 71.167969 84.382812 71.140625 84.652344 71.140625 C 84.921875 71.140625 85.1875 71.167969 85.453125 71.21875 C 85.714844 71.273438 85.972656 71.351562 86.222656 71.453125 C 86.46875 71.558594 86.707031 71.683594 86.929688 71.832031 C 87.152344 71.984375 87.359375 72.152344 87.550781 72.34375 C 87.742188 72.535156 87.910156 72.742188 88.0625 72.964844 C 88.210938 73.1875 88.335938 73.425781 88.441406 73.671875 C 88.542969 73.921875 88.621094 74.179688 88.675781 74.441406 C 88.726562 74.707031 88.753906 74.972656 88.753906 75.242188 Z M 88.753906 75.242188 " fill-opacity="1" fill-rule="nonzero"></path><path fill="#2fe0ad" d="M 39.535156 97.800781 C 39.535156 98.070312 39.507812 98.339844 39.457031 98.601562 C 39.402344 98.867188 39.324219 99.121094 39.222656 99.371094 C 39.117188 99.621094 38.992188 99.855469 38.84375 100.082031 C 38.691406 100.304688 38.523438 100.511719 38.332031 100.703125 C 38.140625 100.890625 37.933594 101.0625 37.710938 101.210938 C 37.488281 101.363281 37.25 101.488281 37.003906 101.589844 C 36.753906 101.695312 36.496094 101.773438 36.234375 101.824219 C 35.96875 101.878906 35.703125 101.902344 35.433594 101.902344 C 35.164062 101.902344 34.894531 101.878906 34.632812 101.824219 C 34.367188 101.773438 34.113281 101.695312 33.863281 101.589844 C 33.613281 101.488281 33.378906 101.363281 33.152344 101.210938 C 32.929688 101.0625 32.722656 100.890625 32.53125 100.703125 C 32.339844 100.511719 32.171875 100.304688 32.023438 100.082031 C 31.871094 99.855469 31.746094 99.621094 31.644531 99.371094 C 31.539062 99.121094 31.460938 98.867188 31.410156 98.601562 C 31.355469 98.339844 31.332031 98.070312 31.332031 97.800781 C 31.332031 97.53125 31.355469 97.265625 31.410156 97 C 31.460938 96.738281 31.539062 96.480469 31.644531 96.230469 C 31.746094 95.984375 31.871094 95.746094 32.023438 95.523438 C 32.171875 95.300781 32.339844 95.09375 32.53125 94.902344 C 32.722656 94.710938 32.929688 94.542969 33.152344 94.390625 C 33.378906 94.242188 33.613281 94.117188 33.863281 94.011719 C 34.113281 93.910156 34.367188 93.832031 34.632812 93.777344 C 34.894531 93.726562 35.164062 93.699219 35.433594 93.699219 C 35.703125 93.699219 35.96875 93.726562 36.234375 93.777344 C 36.496094 93.832031 36.753906 93.910156 37.003906 94.011719 C 37.25 94.117188 37.488281 94.242188 37.710938 94.390625 C 37.933594 94.542969 38.140625 94.710938 38.332031 94.902344 C 38.523438 95.09375 38.691406 95.300781 38.84375 95.523438 C 38.992188 95.746094 39.117188 95.984375 39.222656 96.230469 C 39.324219 96.480469 39.402344 96.738281 39.457031 97 C 39.507812 97.265625 39.535156 97.53125 39.535156 97.800781 Z M 39.535156 97.800781 " fill-opacity="1" fill-rule="nonzero"></path><path fill="#2fe0ad" d="M 111.3125 116.257812 C 111.3125 116.527344 111.285156 116.792969 111.234375 117.058594 C 111.179688 117.324219 111.101562 117.578125 111 117.828125 C 110.894531 118.078125 110.769531 118.3125 110.621094 118.539062 C 110.46875 118.761719 110.300781 118.96875 110.109375 119.160156 C 109.917969 119.347656 109.710938 119.519531 109.488281 119.667969 C 109.265625 119.820312 109.027344 119.945312 108.78125 120.046875 C 108.53125 120.152344 108.273438 120.230469 108.011719 120.28125 C 107.746094 120.335938 107.480469 120.359375 107.210938 120.359375 C 106.941406 120.359375 106.671875 120.335938 106.410156 120.28125 C 106.144531 120.230469 105.890625 120.152344 105.640625 120.046875 C 105.390625 119.945312 105.15625 119.820312 104.929688 119.667969 C 104.707031 119.519531 104.5 119.347656 104.308594 119.160156 C 104.117188 118.96875 103.949219 118.761719 103.800781 118.539062 C 103.648438 118.3125 103.523438 118.078125 103.421875 117.828125 C 103.316406 117.578125 103.238281 117.324219 103.1875 117.058594 C 103.132812 116.792969 103.109375 116.527344 103.109375 116.257812 C 103.109375 115.988281 103.132812 115.722656 103.1875 115.457031 C 103.238281 115.195312 103.316406 114.9375 103.421875 114.6875 C 103.523438 114.441406 103.648438 114.203125 103.800781 113.980469 C 103.949219 113.757812 104.117188 113.550781 104.308594 113.359375 C 104.5 113.167969 104.707031 113 104.929688 112.847656 C 105.15625 112.699219 105.390625 112.574219 105.640625 112.46875 C 105.890625 112.367188 106.144531 112.289062 106.410156 112.234375 C 106.671875 112.183594 106.941406 112.15625 107.210938 112.15625 C 107.480469 112.15625 107.746094 112.183594 108.011719 112.234375 C 108.273438 112.289062 108.53125 112.367188 108.78125 112.46875 C 109.027344 112.574219 109.265625 112.699219 109.488281 112.847656 C 109.710938 113 109.917969 113.167969 110.109375 113.359375 C 110.300781 113.550781 110.46875 113.757812 110.621094 113.980469 C 110.769531 114.203125 110.894531 114.441406 111 114.6875 C 111.101562 114.9375 111.179688 115.195312 111.234375 115.457031 C 111.285156 115.722656 111.3125 115.988281 111.3125 116.257812 Z M 111.3125 116.257812 " fill-opacity="1" fill-rule="nonzero"></path><g clip-path="url(#cef67f3336)"><path fill="#ffa931" d="M 144.125 114.207031 C 144.125 115.082031 144.082031 115.953125 143.996094 116.820312 C 143.910156 117.691406 143.78125 118.554688 143.613281 119.410156 C 143.441406 120.265625 143.230469 121.113281 142.976562 121.945312 C 142.722656 122.78125 142.429688 123.605469 142.09375 124.410156 C 141.761719 125.21875 141.386719 126.003906 140.976562 126.777344 C 140.5625 127.546875 140.117188 128.292969 139.628906 129.019531 C 139.144531 129.746094 138.625 130.445312 138.070312 131.121094 C 137.519531 131.796875 136.933594 132.441406 136.316406 133.058594 C 135.699219 133.675781 135.050781 134.261719 134.375 134.816406 C 133.703125 135.371094 133 135.890625 132.273438 136.375 C 131.550781 136.859375 130.800781 137.308594 130.03125 137.71875 C 129.261719 138.132812 128.472656 138.503906 127.667969 138.839844 C 126.859375 139.171875 126.039062 139.46875 125.203125 139.71875 C 124.367188 139.972656 123.519531 140.1875 122.664062 140.355469 C 121.808594 140.527344 120.945312 140.652344 120.078125 140.738281 C 119.207031 140.824219 118.335938 140.867188 117.464844 140.867188 C 116.589844 140.867188 115.71875 140.824219 114.851562 140.738281 C 113.980469 140.652344 113.117188 140.527344 112.261719 140.355469 C 111.40625 140.1875 110.558594 139.972656 109.726562 139.71875 C 108.890625 139.46875 108.066406 139.171875 107.261719 138.839844 C 106.453125 138.503906 105.667969 138.132812 104.894531 137.71875 C 104.125 137.308594 103.378906 136.859375 102.652344 136.375 C 101.925781 135.890625 101.226562 135.371094 100.550781 134.816406 C 99.875 134.261719 99.230469 133.675781 98.613281 133.058594 C 97.996094 132.441406 97.410156 131.796875 96.855469 131.121094 C 96.300781 130.445312 95.78125 129.746094 95.296875 129.019531 C 94.8125 128.292969 94.363281 127.546875 93.953125 126.777344 C 93.539062 126.003906 93.167969 125.21875 92.832031 124.410156 C 92.5 123.605469 92.203125 122.78125 91.953125 121.945312 C 91.699219 121.113281 91.484375 120.265625 91.316406 119.410156 C 91.144531 118.554688 91.015625 117.691406 90.933594 116.820312 C 90.847656 115.953125 90.804688 115.082031 90.804688 114.207031 C 90.804688 113.335938 90.847656 112.464844 90.933594 111.59375 C 91.015625 110.726562 91.144531 109.863281 91.316406 109.007812 C 91.484375 108.152344 91.699219 107.304688 91.953125 106.46875 C 92.203125 105.632812 92.5 104.8125 92.832031 104.003906 C 93.167969 103.199219 93.539062 102.410156 93.953125 101.640625 C 94.363281 100.871094 94.8125 100.121094 95.296875 99.398438 C 95.78125 98.671875 96.300781 97.96875 96.855469 97.296875 C 97.410156 96.621094 97.996094 95.972656 98.613281 95.355469 C 99.230469 94.738281 99.875 94.152344 100.550781 93.597656 C 101.226562 93.046875 101.925781 92.527344 102.652344 92.039062 C 103.378906 91.554688 104.125 91.109375 104.894531 90.695312 C 105.667969 90.285156 106.453125 89.910156 107.261719 89.578125 C 108.066406 89.242188 108.890625 88.949219 109.726562 88.695312 C 110.558594 88.441406 111.40625 88.230469 112.261719 88.058594 C 113.117188 87.890625 113.980469 87.761719 114.851562 87.675781 C 115.71875 87.589844 116.589844 87.546875 117.464844 87.546875 C 118.335938 87.546875 119.207031 87.589844 120.078125 87.675781 C 120.945312 87.761719 121.808594 87.890625 122.664062 88.058594 C 123.519531 88.230469 124.367188 88.441406 125.203125 88.695312 C 126.039062 88.949219 126.859375 89.242188 127.667969 89.578125 C 128.472656 89.910156 129.261719 90.285156 130.03125 90.695312 C 130.800781 91.109375 131.550781 91.554688 132.273438 92.039062 C 133 92.527344 133.703125 93.046875 134.375 93.597656 C 135.050781 94.152344 135.699219 94.738281 136.316406 95.355469 C 136.933594 95.972656 137.519531 96.621094 138.070312 97.296875 C 138.625 97.96875 139.144531 98.671875 139.628906 99.398438 C 140.117188 100.121094 140.5625 100.871094 140.976562 101.640625 C 141.386719 102.410156 141.761719 103.199219 142.09375 104.003906 C 142.429688 104.8125 142.722656 105.632812 142.976562 106.46875 C 143.230469 107.304688 143.441406 108.152344 143.613281 109.007812 C 143.78125 109.863281 143.910156 110.726562 143.996094 111.59375 C 144.082031 112.464844 144.125 113.335938 144.125 114.207031 Z M 144.125 114.207031 " fill-opacity="1" fill-rule="nonzero"></path></g><path fill="#c8fafc" d="M 140.023438 114.207031 C 140.023438 114.945312 139.984375 115.683594 139.914062 116.417969 C 139.839844 117.15625 139.734375 117.882812 139.589844 118.609375 C 139.445312 119.332031 139.265625 120.050781 139.050781 120.757812 C 138.835938 121.464844 138.585938 122.160156 138.304688 122.839844 C 138.023438 123.523438 137.707031 124.191406 137.359375 124.84375 C 137.011719 125.492188 136.632812 126.125 136.21875 126.742188 C 135.808594 127.355469 135.371094 127.949219 134.902344 128.519531 C 134.433594 129.089844 133.9375 129.636719 133.414062 130.160156 C 132.894531 130.683594 132.347656 131.175781 131.773438 131.644531 C 131.203125 132.113281 130.609375 132.554688 129.996094 132.964844 C 129.382812 133.375 128.75 133.753906 128.097656 134.101562 C 127.445312 134.453125 126.777344 134.765625 126.097656 135.050781 C 125.414062 135.332031 124.71875 135.582031 124.011719 135.796875 C 123.304688 136.011719 122.589844 136.1875 121.863281 136.332031 C 121.140625 136.476562 120.410156 136.585938 119.675781 136.65625 C 118.941406 136.730469 118.203125 136.765625 117.464844 136.765625 C 116.726562 136.765625 115.988281 136.730469 115.253906 136.65625 C 114.515625 136.585938 113.789062 136.476562 113.0625 136.332031 C 112.339844 136.1875 111.621094 136.011719 110.914062 135.796875 C 110.207031 135.582031 109.511719 135.332031 108.832031 135.050781 C 108.148438 134.765625 107.480469 134.453125 106.828125 134.101562 C 106.179688 133.753906 105.546875 133.375 104.929688 132.964844 C 104.316406 132.554688 103.722656 132.113281 103.152344 131.644531 C 102.582031 131.175781 102.035156 130.683594 101.511719 130.160156 C 100.988281 129.636719 100.496094 129.089844 100.027344 128.519531 C 99.558594 127.949219 99.117188 127.355469 98.707031 126.742188 C 98.296875 126.125 97.917969 125.492188 97.570312 124.84375 C 97.21875 124.191406 96.90625 123.523438 96.621094 122.839844 C 96.339844 122.160156 96.089844 121.464844 95.875 120.757812 C 95.660156 120.050781 95.484375 119.332031 95.339844 118.609375 C 95.195312 117.882812 95.085938 117.15625 95.015625 116.417969 C 94.941406 115.683594 94.90625 114.945312 94.90625 114.207031 C 94.90625 113.46875 94.941406 112.730469 95.015625 111.996094 C 95.085938 111.261719 95.195312 110.53125 95.339844 109.808594 C 95.484375 109.082031 95.660156 108.367188 95.875 107.660156 C 96.089844 106.953125 96.339844 106.257812 96.621094 105.574219 C 96.90625 104.894531 97.21875 104.226562 97.570312 103.574219 C 97.917969 102.921875 98.296875 102.289062 98.707031 101.675781 C 99.117188 101.0625 99.558594 100.46875 100.027344 99.898438 C 100.496094 99.324219 100.988281 98.777344 101.511719 98.257812 C 102.035156 97.734375 102.582031 97.238281 103.152344 96.769531 C 103.722656 96.300781 104.316406 95.863281 104.929688 95.453125 C 105.546875 95.039062 106.179688 94.660156 106.828125 94.3125 C 107.480469 93.964844 108.148438 93.648438 108.832031 93.367188 C 109.511719 93.082031 110.207031 92.835938 110.914062 92.621094 C 111.621094 92.40625 112.339844 92.226562 113.0625 92.082031 C 113.789062 91.9375 114.515625 91.832031 115.253906 91.757812 C 115.988281 91.6875 116.726562 91.648438 117.464844 91.648438 C 118.203125 91.648438 118.941406 91.6875 119.675781 91.757812 C 120.410156 91.832031 121.140625 91.9375 121.863281 92.082031 C 122.589844 92.226562 123.304688 92.40625 124.011719 92.621094 C 124.71875 92.835938 125.414062 93.082031 126.097656 93.367188 C 126.777344 93.648438 127.445312 93.964844 128.097656 94.3125 C 128.75 94.660156 129.382812 95.039062 129.996094 95.453125 C 130.609375 95.863281 131.203125 96.300781 131.773438 96.769531 C 132.347656 97.238281 132.894531 97.734375 133.414062 98.257812 C 133.9375 98.777344 134.433594 99.324219 134.902344 99.898438 C 135.371094 100.46875 135.808594 101.0625 136.21875 101.675781 C 136.632812 102.289062 137.011719 102.921875 137.359375 103.574219 C 137.707031 104.226562 138.023438 104.894531 138.304688 105.574219 C 138.585938 106.257812 138.835938 106.953125 139.050781 107.660156 C 139.265625 108.367188 139.445312 109.082031 139.589844 109.808594 C 139.734375 110.53125 139.839844 111.261719 139.914062 111.996094 C 139.984375 112.730469 140.023438 113.46875 140.023438 114.207031 Z M 140.023438 114.207031 " fill-opacity="1" fill-rule="nonzero"></path><path fill="#3f5c5e" d="M 109.261719 124.460938 C 108.644531 124.460938 108.234375 124.257812 107.824219 123.847656 C 107.003906 123.027344 107.003906 121.796875 107.824219 120.976562 L 115.414062 113.386719 L 115.414062 97.800781 C 115.414062 96.570312 116.234375 95.75 117.464844 95.75 C 118.695312 95.75 119.515625 96.570312 119.515625 97.800781 L 119.515625 114.207031 C 119.515625 114.824219 119.308594 115.234375 118.898438 115.644531 L 110.695312 123.847656 C 110.285156 124.257812 109.875 124.460938 109.261719 124.460938 Z M 109.261719 124.460938 " fill-opacity="1" fill-rule="nonzero"></path></svg>